<?xml version="1.0" encoding="utf-8"?>
<!-- Generator: Adobe Illustrator 27.1.1, SVG Export Plug-In . SVG Version: 6.00 Build 0)  -->
<svg version="1.1" id="Layer_1" xmlns="http://www.w3.org/2000/svg" xmlns:xlink="http://www.w3.org/1999/xlink" x="0px" y="0px"
	 viewBox="0 0 1080 1080" style="enable-background:new 0 0 1080 1080;" xml:space="preserve">
<style type="text/css">
	.st0{fill:#2A2D72;}
	.st1{fill:#55B7E1;}
	.st2{fill:#808080;}
	.st3{fill:#221B37;}
</style>
<g>
	<g>
		<path class="st0" d="M265,451.4l-28.1-61.1c0,0,52.6-18.9,83.1-3.1c1.9,1,2.9,3,2.6,5.1C321.4,400.8,313.3,423.6,265,451.4z"/>
		<path class="st1" d="M331.1,388.2c0,0,22.2,23.8-72.1,78.1s-147.7,123.9-94.7,167.5c53,43.6,160.8-24.7,163.9-36.4
			c0,0-97.4,66.9-158.1,33.7c0,0,1.1-54.3,152.6-130.7C322.6,500.5,409.6,454.3,331.1,388.2z"/>
		<path class="st0" d="M328.6,524.3c0,0,22.5,28.7,24.2,39.1c0,0,36.8-7.6,61.1,4c0,0-33.5,84.9-177.1,111.8
			c0,0-140.4,28.3-137.3-54.3l-4.9-0.4c0,0-25.1,77.7,132.9,68.3c0,0,217.1-43.7,197.3-146.4c-1.5-7.8-6.1-14.6-12.8-18.8
			C398.9,519.3,372.2,509.8,328.6,524.3z"/>
		<polygon class="st1" points="349,669.3 363,660.6 398.2,703 382,707.7 		"/>
		<path class="st1" d="M376.2,652.1l19.5-8.8l30.4,38.7c0,0-3,4.5-14.2,3.4c0,0-6.3,1.1-6.5,4.3L376.2,652.1z"/>
		<polygon class="st1" points="403.4,626.5 423.3,620.8 448.5,659.2 429.6,662.2 		"/>
		<path class="st1" d="M423.1,598.6l17.5-6.7l25.6,39.5c0,0-1.1,2.2-10.8,2.4c0,0-4.5,0.6-7,4.8L423.1,598.6z"/>
		<path class="st1" d="M451.5,563.8l27.3,43.2l-11.5,8.2l-18.4-30c-1.8-3-4.3-5.5-7.2-7.4l-4.8-3.1c-1.5-1-1.4-3.3,0.2-4.1
			L451.5,563.8z"/>
		<path class="st1" d="M471.4,580.5l8.4-4.9l-23.9-34.9l-11.2,6.5c-1,0.6-1,1.9-0.1,2.5l3.3,2.2c3.7,2.5,6.9,5.6,9.5,9.2
			L471.4,580.5z"/>
		<polygon class="st1" points="444.7,514.3 454.9,530.1 440.1,530.1 437,524.7 		"/>
	</g>
	<g>
		<g>
			<path class="st2" d="M536.6,519.1h-11.1v-69.6h11.5c6,0,10.3,1.7,12.8,5c2.2,2.9,3.2,7.4,3.2,13.7c0,8.7-2.9,13.9-8.8,15.4v0.2
				c6.5,2,9.8,7.5,9.8,16.3c0,6.5-1.3,11.2-3.9,14.2C547.5,517.5,543,519.1,536.6,519.1z M544.1,467.8c0-6.9-2.7-10.4-8.2-10.4h-1.6
				v22.7c3.9,0.2,6.6-0.9,8.1-3.3C543.5,475,544.1,472,544.1,467.8z M534.3,487.5v23.6c3.9,0.2,6.6-0.7,8.1-2.8
				c1.3-1.8,1.9-4.7,1.9-8.6c0-4.2-0.6-7.1-1.8-8.9C541.1,488.6,538.3,487.5,534.3,487.5z"/>
			<path class="st2" d="M562.6,472.5h8.7v29.2c0,3.4,0.2,5.6,0.5,6.6c0.7,2.4,2.3,3.6,4.9,3.6c2.5,0,4.1-1.1,4.8-3.3
				c0.2-0.9,0.4-3,0.4-6.5v-29.6h8.7v31.5c0,5.2-0.9,9-2.8,11.5c-2.2,2.9-5.7,4.3-10.7,4.3c-5.8,0-9.8-1.6-11.9-4.9
				c-1.7-2.6-2.5-6.9-2.5-12.8V472.5z"/>
			<path class="st2" d="M616.1,473.8v8.2c-1.8-1.7-4-2.5-6.5-2.5c-1.6,0-3,0.4-4.2,1.3c-1.2,0.9-1.8,2.1-1.8,3.6
				c0.1,2,1.4,4.1,3.9,6.1c4.2,3.3,6.5,5.2,6.9,5.6c2.5,2.8,3.8,6,3.8,9.8c0,4.1-1.2,7.5-3.6,10c-2.4,2.6-5.7,3.8-9.8,3.8
				c-2.6,0-5.1-0.7-7.6-2.2v-8.5c2.5,2,4.9,3,7.2,3c3.9,0,5.8-2,5.8-5.9c0-2-1.4-4.2-4.2-6.8c-2.2-1.8-4.4-3.6-6.6-5.4
				c-2.5-2.6-3.8-5.8-3.8-9.5c0-3.7,1.2-6.7,3.5-9.1c2.3-2.4,5.3-3.6,9-3.6C611.2,471.7,613.8,472.4,616.1,473.8z"/>
			<path class="st2" d="M628.3,464.2c-1.6,0-3-0.6-4.1-1.7c-1.1-1.1-1.7-2.5-1.7-4.1c0-1.6,0.6-3,1.7-4.1c1.1-1.1,2.5-1.7,4.1-1.7
				c1.5,0,2.9,0.6,4,1.7c1.1,1.1,1.7,2.5,1.7,4c0,1.6-0.6,3-1.7,4.1C631.2,463.6,629.9,464.2,628.3,464.2z M632.5,472.5v46.6h-8.7
				v-46.6H632.5z"/>
			<path class="st2" d="M649.2,472.5v5.4c2.1-4.1,5.3-6.1,9.5-6.1c4.2,0,6.9,1.7,8.3,5c0.9,2.1,1.3,5.5,1.3,10.3v32h-8.7v-32.2
				c0-4.9-1.7-7.4-5.2-7.4c-2.5,0-4.1,1.3-4.8,3.8c-0.3,1.1-0.5,3.4-0.5,6.7v29.1h-8.7v-46.6H649.2z"/>
			<path class="st2" d="M703,497.5h-19.2c0,9.7,1.8,14.6,5.4,14.6c3.6,0,5.4-2.9,5.4-8.7h8c0,4.7-1,8.6-3.1,11.4
				c-2.4,3.3-5.9,5-10.4,5c-5.8,0-9.8-2.7-12-8.1c-1.5-3.6-2.2-8.8-2.2-15.6c0-16.2,4.6-24.4,13.9-24.4c9.4,0,14.1,8.1,14.1,24.4
				V497.5z M683.8,491.3h10.3c0-7.9-1.8-11.8-5.3-11.8c-2.3,0-3.9,1.5-4.6,4.5C684,485.3,683.8,487.7,683.8,491.3z"/>
			<path class="st2" d="M727.3,473.8v8.2c-1.8-1.7-4-2.5-6.5-2.5c-1.6,0-3,0.4-4.2,1.3c-1.2,0.9-1.8,2.1-1.8,3.6
				c0.1,2,1.4,4.1,3.9,6.1c4.2,3.3,6.5,5.2,6.9,5.6c2.5,2.8,3.8,6,3.8,9.8c0,4.1-1.2,7.5-3.6,10c-2.4,2.6-5.7,3.8-9.8,3.8
				c-2.6,0-5.1-0.7-7.6-2.2v-8.5c2.5,2,4.9,3,7.2,3c3.9,0,5.8-2,5.8-5.9c0-2-1.4-4.2-4.2-6.8c-2.2-1.8-4.4-3.6-6.6-5.4
				c-2.5-2.6-3.8-5.8-3.8-9.5c0-3.7,1.2-6.7,3.5-9.1c2.3-2.4,5.3-3.6,9-3.6C722.4,471.7,725,472.4,727.3,473.8z"/>
			<path class="st2" d="M752.7,473.8v8.2c-1.8-1.7-4-2.5-6.5-2.5c-1.6,0-3,0.4-4.2,1.3c-1.2,0.9-1.8,2.1-1.8,3.6
				c0.1,2,1.4,4.1,3.9,6.1c4.2,3.3,6.5,5.2,6.9,5.6c2.5,2.8,3.8,6,3.8,9.8c0,4.1-1.2,7.5-3.6,10c-2.4,2.6-5.7,3.8-9.8,3.8
				c-2.6,0-5.1-0.7-7.6-2.2v-8.5c2.5,2,4.9,3,7.2,3c3.9,0,5.8-2,5.8-5.9c0-2-1.4-4.2-4.2-6.8c-2.2-1.8-4.4-3.6-6.6-5.4
				c-2.5-2.6-3.8-5.8-3.8-9.5c0-3.7,1.2-6.7,3.5-9.1c2.3-2.4,5.3-3.6,9-3.6C747.9,471.7,750.5,472.4,752.7,473.8z"/>
			<path class="st2" d="M802.7,450.9l-0.1,9.3c-2.7-2-5.3-3-7.8-3c-2.5,0-4.4,0.9-6,2.6c-1.5,1.7-2.3,3.8-2.3,6.4
				c0,3.1,0.9,5.7,2.6,7.6l7,7.7c3.6,3.9,6,7,7.2,9.1c1.8,3.3,2.7,7,2.7,11.3c0,5-1.4,9.3-4.3,12.7c-3,3.6-7,5.4-12,5.4
				c-4,0-7.4-1.1-10.2-3.3v-9.3c3.3,2.4,6.3,3.6,9.1,3.6c2.6,0,4.7-1,6.2-3c1.3-1.7,1.9-4,1.9-6.7c0-3.8-1.7-7.5-5.1-11.2
				c-1.4-1.4-4.5-4.6-9.3-9.6c-3.4-4.2-5.1-9-5.1-14.1c0-5.2,1.3-9.4,3.9-12.5c2.8-3.5,6.7-5.3,11.7-5.3
				C796.8,448.6,800,449.3,802.7,450.9z"/>
			<path class="st2" d="M825.5,519.8c-9.8,0-14.7-8-14.7-23.9c0-16.1,4.9-24.2,14.7-24.2c9.8,0,14.7,8.1,14.7,24.2
				C840.1,511.8,835.2,519.8,825.5,519.8z M825.5,511.9c2.8,0,4.6-2.2,5.4-6.7c0.2-1.4,0.4-4.5,0.4-9.2c0-4.9-0.1-8.1-0.4-9.5
				c-0.8-4.5-2.6-6.7-5.4-6.7c-2.8,0-4.6,2.2-5.4,6.7c-0.3,1.8-0.5,5-0.5,9.5c0,4.4,0.2,7.4,0.5,9.2
				C820.9,509.6,822.7,511.9,825.5,511.9z"/>
			<path class="st2" d="M855.4,442.5v76.6h-8.7v-76.6H855.4z"/>
			<path class="st2" d="M863.4,472.5h8.7v29.2c0,3.4,0.2,5.6,0.5,6.6c0.7,2.4,2.3,3.6,4.9,3.6c2.5,0,4.1-1.1,4.8-3.3
				c0.2-0.9,0.4-3,0.4-6.5v-29.6h8.7v31.5c0,5.2-0.9,9-2.8,11.5c-2.2,2.9-5.7,4.3-10.7,4.3c-5.8,0-9.8-1.6-11.9-4.9
				c-1.7-2.6-2.5-6.9-2.5-12.8V472.5z"/>
			<path class="st2" d="M901.1,459.3h8.7v13.2h4.6v6.8h-4.6v39.8h-8.7v-39.8h-4.7v-6.8h4.7V459.3z"/>
			<path class="st2" d="M924,464.2c-1.6,0-3-0.6-4.1-1.7c-1.1-1.1-1.7-2.5-1.7-4.1c0-1.6,0.6-3,1.7-4.1c1.1-1.1,2.5-1.7,4.1-1.7
				c1.5,0,2.9,0.6,4,1.7c1.1,1.1,1.7,2.5,1.7,4c0,1.6-0.6,3-1.7,4.1C927,463.6,925.6,464.2,924,464.2z M928.3,472.5v46.6h-8.7v-46.6
				H928.3z"/>
			<path class="st2" d="M949.6,519.8c-9.8,0-14.7-8-14.7-23.9c0-16.1,4.9-24.2,14.7-24.2c9.8,0,14.7,8.1,14.7,24.2
				C964.3,511.8,959.4,519.8,949.6,519.8z M949.6,511.9c2.8,0,4.6-2.2,5.4-6.7c0.2-1.4,0.4-4.5,0.4-9.2c0-4.9-0.1-8.1-0.4-9.5
				c-0.8-4.5-2.6-6.7-5.4-6.7c-2.8,0-4.6,2.2-5.4,6.7c-0.3,1.8-0.5,5-0.5,9.5c0,4.4,0.2,7.4,0.5,9.2
				C945,509.6,946.8,511.9,949.6,511.9z"/>
			<path class="st2" d="M979.6,472.5v5.4c2.1-4.1,5.3-6.1,9.5-6.1c4.2,0,6.9,1.7,8.3,5c0.9,2.1,1.3,5.5,1.3,10.3v32H990v-32.2
				c0-4.9-1.7-7.4-5.2-7.4c-2.5,0-4.1,1.3-4.8,3.8c-0.3,1.1-0.5,3.4-0.5,6.7v29.1h-8.7v-46.6H979.6z"/>
		</g>
		<g>
			<path d="M546.4,592.1c0,0.5,0,1-0.1,1.3c0,0.4-0.1,0.6-0.2,0.9c-0.1,0.2-0.2,0.4-0.3,0.5c-0.1,0.1-0.3,0.1-0.4,0.1h-17.6
				c-0.6,0-1.1-0.2-1.5-0.5c-0.4-0.4-0.6-0.9-0.6-1.7V562c0-0.8,0.2-1.4,0.6-1.7c0.4-0.4,0.9-0.5,1.5-0.5h17.5c0.2,0,0.3,0,0.4,0.1
				c0.1,0.1,0.2,0.2,0.3,0.5c0.1,0.2,0.2,0.5,0.2,0.9c0,0.4,0.1,0.8,0.1,1.3c0,0.5,0,0.9-0.1,1.3c0,0.4-0.1,0.6-0.2,0.9
				c-0.1,0.2-0.2,0.4-0.3,0.5c-0.1,0.1-0.3,0.1-0.4,0.1h-12.5v8.6h10.6c0.2,0,0.3,0,0.4,0.1c0.1,0.1,0.2,0.3,0.3,0.5
				c0.1,0.2,0.2,0.5,0.2,0.8c0,0.4,0.1,0.8,0.1,1.3c0,0.5,0,1-0.1,1.3c0,0.3-0.1,0.6-0.2,0.8c-0.1,0.2-0.2,0.4-0.3,0.4
				s-0.3,0.1-0.4,0.1h-10.6v9.9h12.6c0.2,0,0.3,0.1,0.4,0.1c0.1,0.1,0.2,0.3,0.3,0.5c0.1,0.2,0.2,0.5,0.2,0.9
				C546.3,591.1,546.4,591.6,546.4,592.1z"/>
			<path d="M581.6,592.4c0,0.4-0.1,0.8-0.2,1.1c-0.1,0.3-0.3,0.6-0.6,0.8c-0.2,0.2-0.5,0.4-0.9,0.5c-0.3,0.1-0.7,0.1-1,0.1h-3
				c-0.6,0-1.2-0.1-1.6-0.2c-0.5-0.1-0.9-0.4-1.3-0.7c-0.4-0.3-0.8-0.8-1.1-1.4c-0.4-0.6-0.8-1.3-1.2-2.2l-8.7-16.4
				c-0.5-1-1-2-1.5-3.2c-0.5-1.1-1-2.2-1.4-3.3h-0.1c0.1,1.3,0.1,2.6,0.2,3.9c0,1.3,0.1,2.6,0.1,4v18.4c0,0.2-0.1,0.3-0.1,0.5
				c-0.1,0.1-0.3,0.3-0.5,0.4c-0.2,0.1-0.6,0.2-1,0.2c-0.4,0.1-0.9,0.1-1.6,0.1c-0.6,0-1.2,0-1.6-0.1c-0.4-0.1-0.7-0.1-1-0.2
				c-0.2-0.1-0.4-0.2-0.5-0.4c-0.1-0.1-0.1-0.3-0.1-0.5v-31.6c0-0.9,0.2-1.5,0.7-1.9c0.5-0.4,1.1-0.6,1.8-0.6h3.8
				c0.7,0,1.3,0.1,1.7,0.2c0.5,0.1,0.9,0.3,1.3,0.6c0.4,0.3,0.7,0.6,1,1.1c0.3,0.5,0.7,1.1,1,1.8l6.8,12.8c0.4,0.8,0.8,1.5,1.2,2.3
				c0.4,0.8,0.8,1.5,1.1,2.3c0.4,0.8,0.7,1.5,1.1,2.2c0.3,0.7,0.7,1.4,1,2.2h0c-0.1-1.3-0.1-2.6-0.1-4c0-1.4,0-2.7,0-3.9v-16.5
				c0-0.2,0.1-0.3,0.2-0.5c0.1-0.1,0.3-0.3,0.5-0.4c0.3-0.1,0.6-0.2,1-0.2c0.4,0,0.9-0.1,1.6-0.1c0.6,0,1.1,0,1.5,0.1
				c0.4,0,0.7,0.1,1,0.2c0.2,0.1,0.4,0.2,0.5,0.4c0.1,0.1,0.1,0.3,0.1,0.5V592.4z"/>
			<path d="M617.4,565.2c0,0.5,0,1-0.1,1.4c0,0.4-0.1,0.7-0.2,0.9c-0.1,0.2-0.2,0.4-0.3,0.5c-0.1,0.1-0.3,0.1-0.4,0.1
				c-0.2,0-0.6-0.2-1.1-0.5c-0.5-0.3-1.2-0.7-2.1-1.1c-0.9-0.4-1.9-0.7-3.1-1.1c-1.2-0.3-2.6-0.5-4.2-0.5c-1.7,0-3.2,0.3-4.6,0.9
				c-1.4,0.6-2.6,1.4-3.5,2.5c-1,1.1-1.7,2.4-2.3,3.9c-0.5,1.5-0.8,3.2-0.8,5c0,2,0.3,3.8,0.8,5.3c0.5,1.5,1.3,2.8,2.2,3.8
				c1,1,2.1,1.8,3.5,2.3c1.3,0.5,2.8,0.8,4.5,0.8c0.8,0,1.6-0.1,2.4-0.3c0.8-0.2,1.5-0.5,2.2-0.8v-8.1h-6.6c-0.3,0-0.6-0.2-0.8-0.6
				c-0.2-0.4-0.3-1.1-0.3-2.1c0-0.5,0-0.9,0.1-1.3c0-0.3,0.1-0.6,0.2-0.8c0.1-0.2,0.2-0.4,0.3-0.5c0.1-0.1,0.3-0.1,0.4-0.1h11.9
				c0.3,0,0.5,0.1,0.8,0.1c0.2,0.1,0.4,0.2,0.6,0.4c0.2,0.2,0.3,0.4,0.4,0.7c0.1,0.3,0.1,0.6,0.1,1v14c0,0.5-0.1,1-0.3,1.4
				c-0.2,0.4-0.6,0.7-1.2,1c-0.6,0.2-1.3,0.5-2.2,0.7c-0.9,0.3-1.8,0.5-2.7,0.7c-0.9,0.2-1.9,0.3-2.8,0.4c-0.9,0.1-1.9,0.1-2.9,0.1
				c-2.8,0-5.3-0.4-7.5-1.2c-2.2-0.8-4.1-2-5.6-3.5c-1.5-1.5-2.7-3.4-3.5-5.6c-0.8-2.2-1.2-4.7-1.2-7.5c0-2.9,0.4-5.5,1.3-7.7
				c0.9-2.3,2.1-4.2,3.7-5.8c1.6-1.6,3.5-2.8,5.8-3.7c2.3-0.9,4.8-1.3,7.5-1.3c1.5,0,2.9,0.1,4.2,0.3c1.2,0.2,2.3,0.5,3.3,0.8
				c0.9,0.3,1.7,0.6,2.3,1c0.6,0.3,1,0.6,1.3,0.9c0.2,0.3,0.4,0.6,0.5,1.1C617.4,563.6,617.4,564.3,617.4,565.2z"/>
			<path d="M631.9,593.9c0,0.2-0.1,0.3-0.2,0.5c-0.1,0.1-0.3,0.3-0.6,0.4s-0.6,0.2-1.1,0.2c-0.5,0.1-1,0.1-1.7,0.1
				c-0.7,0-1.3,0-1.7-0.1c-0.5-0.1-0.8-0.1-1.1-0.2c-0.3-0.1-0.5-0.2-0.6-0.4c-0.1-0.1-0.2-0.3-0.2-0.5v-33.2c0-0.2,0.1-0.3,0.2-0.5
				c0.1-0.1,0.3-0.3,0.6-0.4c0.3-0.1,0.6-0.2,1.1-0.2c0.5-0.1,1-0.1,1.7-0.1c0.7,0,1.3,0,1.7,0.1c0.5,0.1,0.8,0.1,1.1,0.2
				c0.3,0.1,0.5,0.2,0.6,0.4c0.1,0.1,0.2,0.3,0.2,0.5V593.9z"/>
			<path d="M668.5,592.4c0,0.4-0.1,0.8-0.2,1.1c-0.1,0.3-0.3,0.6-0.6,0.8c-0.2,0.2-0.5,0.4-0.9,0.5c-0.3,0.1-0.7,0.1-1,0.1h-3
				c-0.6,0-1.2-0.1-1.6-0.2c-0.5-0.1-0.9-0.4-1.3-0.7c-0.4-0.3-0.8-0.8-1.1-1.4c-0.4-0.6-0.8-1.3-1.2-2.2l-8.7-16.4
				c-0.5-1-1-2-1.5-3.2c-0.5-1.1-1-2.2-1.4-3.3h-0.1c0.1,1.3,0.1,2.6,0.2,3.9c0,1.3,0.1,2.6,0.1,4v18.4c0,0.2,0,0.3-0.1,0.5
				c-0.1,0.1-0.3,0.3-0.5,0.4c-0.2,0.1-0.6,0.2-1,0.2c-0.4,0.1-0.9,0.1-1.6,0.1c-0.6,0-1.2,0-1.6-0.1c-0.4-0.1-0.7-0.1-1-0.2
				c-0.2-0.1-0.4-0.2-0.5-0.4c-0.1-0.1-0.1-0.3-0.1-0.5v-31.6c0-0.9,0.2-1.5,0.7-1.9c0.5-0.4,1.1-0.6,1.8-0.6h3.8
				c0.7,0,1.3,0.1,1.7,0.2c0.5,0.1,0.9,0.3,1.3,0.6c0.4,0.3,0.7,0.6,1,1.1c0.3,0.5,0.7,1.1,1,1.8l6.8,12.8c0.4,0.8,0.8,1.5,1.2,2.3
				c0.4,0.8,0.8,1.5,1.1,2.3c0.4,0.8,0.7,1.5,1.1,2.2c0.3,0.7,0.7,1.4,1,2.2h0c-0.1-1.3-0.1-2.6-0.1-4c0-1.4,0-2.7,0-3.9v-16.5
				c0-0.2,0.1-0.3,0.2-0.5c0.1-0.1,0.3-0.3,0.5-0.4c0.3-0.1,0.6-0.2,1-0.2c0.4,0,0.9-0.1,1.6-0.1c0.6,0,1.1,0,1.5,0.1
				c0.4,0,0.7,0.1,1,0.2c0.2,0.1,0.4,0.2,0.5,0.4c0.1,0.1,0.1,0.3,0.1,0.5V592.4z"/>
			<path d="M696.9,592.1c0,0.5,0,1-0.1,1.3c0,0.4-0.1,0.6-0.2,0.9c-0.1,0.2-0.2,0.4-0.3,0.5c-0.1,0.1-0.3,0.1-0.4,0.1h-17.6
				c-0.6,0-1.1-0.2-1.5-0.5c-0.4-0.4-0.6-0.9-0.6-1.7V562c0-0.8,0.2-1.4,0.6-1.7c0.4-0.4,0.9-0.5,1.5-0.5h17.5c0.2,0,0.3,0,0.4,0.1
				c0.1,0.1,0.2,0.2,0.3,0.5c0.1,0.2,0.2,0.5,0.2,0.9c0,0.4,0.1,0.8,0.1,1.3c0,0.5,0,0.9-0.1,1.3c0,0.4-0.1,0.6-0.2,0.9
				c-0.1,0.2-0.2,0.4-0.3,0.5c-0.1,0.1-0.3,0.1-0.4,0.1h-12.5v8.6h10.6c0.2,0,0.3,0,0.4,0.1c0.1,0.1,0.2,0.3,0.3,0.5
				s0.2,0.5,0.2,0.8c0,0.4,0.1,0.8,0.1,1.3c0,0.5,0,1-0.1,1.3c0,0.3-0.1,0.6-0.2,0.8c-0.1,0.2-0.2,0.4-0.3,0.4
				c-0.1,0.1-0.3,0.1-0.4,0.1h-10.6v9.9h12.6c0.2,0,0.3,0.1,0.4,0.1c0.1,0.1,0.2,0.3,0.3,0.5c0.1,0.2,0.2,0.5,0.2,0.9
				C696.9,591.1,696.9,591.6,696.9,592.1z"/>
			<path d="M724,592.1c0,0.5,0,1-0.1,1.3c0,0.4-0.1,0.6-0.2,0.9c-0.1,0.2-0.2,0.4-0.3,0.5c-0.1,0.1-0.3,0.1-0.4,0.1h-17.6
				c-0.6,0-1.1-0.2-1.5-0.5c-0.4-0.4-0.6-0.9-0.6-1.7V562c0-0.8,0.2-1.4,0.6-1.7c0.4-0.4,0.9-0.5,1.5-0.5h17.5c0.2,0,0.3,0,0.4,0.1
				c0.1,0.1,0.2,0.2,0.3,0.5c0.1,0.2,0.2,0.5,0.2,0.9c0,0.4,0.1,0.8,0.1,1.3c0,0.5,0,0.9-0.1,1.3c0,0.4-0.1,0.6-0.2,0.9
				c-0.1,0.2-0.2,0.4-0.3,0.5c-0.1,0.1-0.3,0.1-0.4,0.1h-12.5v8.6h10.6c0.2,0,0.3,0,0.4,0.1c0.1,0.1,0.2,0.3,0.3,0.5
				s0.2,0.5,0.2,0.8c0,0.4,0.1,0.8,0.1,1.3c0,0.5,0,1-0.1,1.3c0,0.3-0.1,0.6-0.2,0.8c-0.1,0.2-0.2,0.4-0.3,0.4
				c-0.1,0.1-0.3,0.1-0.4,0.1h-10.6v9.9H723c0.2,0,0.3,0.1,0.4,0.1c0.1,0.1,0.2,0.3,0.3,0.5c0.1,0.2,0.2,0.5,0.2,0.9
				C724,591.1,724,591.6,724,592.1z"/>
			<path d="M756.4,594c0,0.2,0,0.4-0.1,0.5c-0.1,0.1-0.2,0.2-0.5,0.3c-0.3,0.1-0.7,0.2-1.2,0.2c-0.5,0-1.2,0.1-2.1,0.1
				c-0.8,0-1.4,0-1.8-0.1c-0.5,0-0.8-0.1-1.1-0.2c-0.3-0.1-0.4-0.2-0.6-0.4c-0.1-0.2-0.2-0.3-0.3-0.6l-3.1-7.8
				c-0.4-0.9-0.8-1.7-1.1-2.4c-0.4-0.7-0.8-1.3-1.2-1.7c-0.4-0.5-1-0.8-1.5-1c-0.6-0.2-1.2-0.4-2-0.4h-2.2v13.4
				c0,0.2-0.1,0.3-0.2,0.5c-0.1,0.1-0.3,0.3-0.6,0.4s-0.6,0.2-1.1,0.2c-0.5,0.1-1,0.1-1.7,0.1c-0.7,0-1.3,0-1.7-0.1
				c-0.5-0.1-0.8-0.1-1.1-0.2s-0.5-0.2-0.6-0.4c-0.1-0.1-0.2-0.3-0.2-0.5V562c0-0.8,0.2-1.4,0.6-1.7c0.4-0.4,0.9-0.5,1.5-0.5h9.1
				c0.9,0,1.7,0,2.3,0.1c0.6,0,1.1,0.1,1.6,0.1c1.4,0.2,2.7,0.5,3.8,1c1.1,0.5,2.1,1.1,2.9,1.9s1.4,1.7,1.8,2.8
				c0.4,1.1,0.6,2.3,0.6,3.7c0,1.2-0.1,2.2-0.4,3.2c-0.3,1-0.7,1.8-1.3,2.6c-0.6,0.8-1.3,1.4-2.1,2c-0.9,0.6-1.8,1-2.9,1.4
				c0.5,0.3,1,0.6,1.5,0.9c0.5,0.4,0.9,0.8,1.3,1.3c0.4,0.5,0.8,1.1,1.2,1.8c0.4,0.7,0.7,1.4,1.1,2.2l3,6.9c0.3,0.7,0.5,1.2,0.5,1.5
				C756.3,593.5,756.4,593.8,756.4,594z M747.2,570.1c0-1.2-0.3-2.1-0.8-2.9c-0.5-0.8-1.4-1.4-2.6-1.7c-0.4-0.1-0.8-0.2-1.2-0.2
				c-0.5-0.1-1.1-0.1-1.9-0.1h-3.2v10h3.6c1,0,1.9-0.1,2.7-0.4c0.8-0.2,1.4-0.6,1.9-1c0.5-0.4,0.9-1,1.1-1.6
				C747.1,571.6,747.2,570.9,747.2,570.1z"/>
			<path d="M768.8,593.9c0,0.2-0.1,0.3-0.2,0.5c-0.1,0.1-0.3,0.3-0.6,0.4s-0.6,0.2-1.1,0.2c-0.5,0.1-1,0.1-1.7,0.1
				c-0.7,0-1.3,0-1.7-0.1c-0.5-0.1-0.8-0.1-1.1-0.2c-0.3-0.1-0.5-0.2-0.6-0.4c-0.1-0.1-0.2-0.3-0.2-0.5v-33.2c0-0.2,0.1-0.3,0.2-0.5
				c0.1-0.1,0.3-0.3,0.6-0.4c0.3-0.1,0.6-0.2,1.1-0.2c0.5-0.1,1-0.1,1.7-0.1c0.7,0,1.3,0,1.7,0.1c0.5,0.1,0.8,0.1,1.1,0.2
				c0.3,0.1,0.5,0.2,0.6,0.4c0.1,0.1,0.2,0.3,0.2,0.5V593.9z"/>
			<path d="M805.4,592.4c0,0.4-0.1,0.8-0.2,1.1c-0.1,0.3-0.3,0.6-0.6,0.8c-0.2,0.2-0.5,0.4-0.9,0.5c-0.3,0.1-0.7,0.1-1,0.1h-3
				c-0.6,0-1.2-0.1-1.6-0.2c-0.5-0.1-0.9-0.4-1.3-0.7s-0.8-0.8-1.1-1.4c-0.4-0.6-0.8-1.3-1.2-2.2l-8.7-16.4c-0.5-1-1-2-1.5-3.2
				c-0.5-1.1-1-2.2-1.4-3.3h-0.1c0.1,1.3,0.1,2.6,0.2,3.9c0,1.3,0.1,2.6,0.1,4v18.4c0,0.2-0.1,0.3-0.1,0.5c-0.1,0.1-0.3,0.3-0.5,0.4
				c-0.2,0.1-0.6,0.2-1,0.2c-0.4,0.1-0.9,0.1-1.6,0.1c-0.6,0-1.2,0-1.6-0.1c-0.4-0.1-0.7-0.1-1-0.2c-0.2-0.1-0.4-0.2-0.5-0.4
				c-0.1-0.1-0.1-0.3-0.1-0.5v-31.6c0-0.9,0.2-1.5,0.7-1.9c0.5-0.4,1.1-0.6,1.8-0.6h3.8c0.7,0,1.3,0.1,1.7,0.2
				c0.5,0.1,0.9,0.3,1.3,0.6c0.4,0.3,0.7,0.6,1,1.1c0.3,0.5,0.7,1.1,1,1.8l6.8,12.8c0.4,0.8,0.8,1.5,1.2,2.3
				c0.4,0.8,0.8,1.5,1.1,2.3c0.4,0.8,0.7,1.5,1.1,2.2c0.3,0.7,0.7,1.4,1,2.2h0c-0.1-1.3-0.1-2.6-0.1-4s0-2.7,0-3.9v-16.5
				c0-0.2,0.1-0.3,0.2-0.5c0.1-0.1,0.3-0.3,0.5-0.4c0.3-0.1,0.6-0.2,1-0.2c0.4,0,0.9-0.1,1.6-0.1c0.6,0,1.1,0,1.5,0.1
				c0.4,0,0.7,0.1,1,0.2c0.2,0.1,0.4,0.2,0.5,0.4c0.1,0.1,0.1,0.3,0.1,0.5V592.4z"/>
			<path d="M841.2,565.2c0,0.5,0,1-0.1,1.4c0,0.4-0.1,0.7-0.2,0.9c-0.1,0.2-0.2,0.4-0.3,0.5c-0.1,0.1-0.3,0.1-0.4,0.1
				c-0.2,0-0.6-0.2-1.1-0.5c-0.5-0.3-1.2-0.7-2.1-1.1c-0.9-0.4-1.9-0.7-3.1-1.1c-1.2-0.3-2.6-0.5-4.2-0.5c-1.7,0-3.2,0.3-4.6,0.9
				c-1.4,0.6-2.6,1.4-3.5,2.5c-1,1.1-1.7,2.4-2.3,3.9c-0.5,1.5-0.8,3.2-0.8,5c0,2,0.3,3.8,0.8,5.3c0.5,1.5,1.3,2.8,2.2,3.8
				c1,1,2.1,1.8,3.5,2.3c1.3,0.5,2.8,0.8,4.5,0.8c0.8,0,1.6-0.1,2.4-0.3c0.8-0.2,1.5-0.5,2.2-0.8v-8.1h-6.6c-0.3,0-0.6-0.2-0.8-0.6
				c-0.2-0.4-0.3-1.1-0.3-2.1c0-0.5,0-0.9,0.1-1.3c0-0.3,0.1-0.6,0.2-0.8c0.1-0.2,0.2-0.4,0.3-0.5c0.1-0.1,0.3-0.1,0.4-0.1h11.9
				c0.3,0,0.5,0.1,0.8,0.1c0.2,0.1,0.4,0.2,0.6,0.4c0.2,0.2,0.3,0.4,0.4,0.7c0.1,0.3,0.1,0.6,0.1,1v14c0,0.5-0.1,1-0.3,1.4
				c-0.2,0.4-0.6,0.7-1.2,1c-0.6,0.2-1.3,0.5-2.2,0.7c-0.9,0.3-1.8,0.5-2.7,0.7c-0.9,0.2-1.9,0.3-2.8,0.4c-0.9,0.1-1.9,0.1-2.9,0.1
				c-2.8,0-5.3-0.4-7.5-1.2c-2.2-0.8-4.1-2-5.6-3.5c-1.5-1.5-2.7-3.4-3.5-5.6c-0.8-2.2-1.2-4.7-1.2-7.5c0-2.9,0.4-5.5,1.3-7.7
				c0.9-2.3,2.1-4.2,3.7-5.8c1.6-1.6,3.5-2.8,5.8-3.7c2.3-0.9,4.8-1.3,7.5-1.3c1.5,0,2.9,0.1,4.2,0.3c1.2,0.2,2.3,0.5,3.3,0.8
				c0.9,0.3,1.7,0.6,2.3,1c0.6,0.3,1,0.6,1.3,0.9c0.2,0.3,0.4,0.6,0.5,1.1C841.2,563.6,841.2,564.3,841.2,565.2z"/>
		</g>
		<g>
			<path class="st3" d="M525.6,638.4v-1.1c2.4-0.2,2.7-0.4,2.7-3v-12c0-2.6-0.3-2.8-2.7-3.1v-1.1h9.2v1.1c-2.4,0.2-2.7,0.4-2.7,3.1
				v12c0,2.6,0.3,2.8,2.7,3v1.1H525.6z"/>
			<path class="st3" d="M544.1,638.4v-1c1.5-0.2,1.6-0.3,1.6-2.5v-5.3c0-2.2-1-3.2-2.4-3.2c-1,0-1.8,0.5-2.7,1.2v7.4
				c0,2,0.1,2.1,1.6,2.3v1h-7v-1c1.8-0.3,2-0.3,2-2.4v-6.5c0-1.9-0.2-2-1.7-2.3v-0.9c1.7-0.2,3.6-0.6,5.2-1.2c0,0.5,0,1.6,0,2.3
				c0.6-0.4,1.3-0.9,2-1.4c0.9-0.6,1.6-0.9,2.5-0.9c2.5,0,4.1,1.8,4.1,5v5.9c0,2,0.2,2.1,1.8,2.3v1H544.1z"/>
			<path class="st3" d="M567.5,637.6c-0.7,0.1-3.4,0.5-5.7,1.2c0-0.6,0-1.2,0-1.9c-0.6,0.4-1.3,0.8-1.9,1.2
				c-0.9,0.6-1.5,0.7-1.9,0.7c-2.6,0-6.2-2.3-6.2-6.9c0-4.3,3.8-7.6,8.4-7.6c0.3,0,1,0,1.5,0.2v-3.9c0-1.8-0.2-1.9-2.2-2.1v-1
				c1.9-0.2,4.3-0.6,5.7-1.1c0,1.2,0,2.4,0,3.7v14.5c0,1.7,0.2,1.8,1.4,2l0.8,0.1V637.6z M561.9,627.2c-0.5-0.9-1.5-1.6-2.7-1.6
				c-1.2,0-3.4,0.8-3.4,5.3c0,4,2.3,5.6,3.9,5.7c0.8,0,1.5-0.3,2.2-0.7V627.2z"/>
			<path class="st3" d="M583.4,637.7c-1.7,0.2-3.6,0.6-5.5,1.1c0-0.6,0-1.5,0-2.2c-1.4,1.2-2.7,2.2-4.5,2.2c-2.4,0-4-1.5-4-4.5V628
				c0-1.5-0.2-1.7-1-1.9l-0.7-0.2V625c1.5-0.1,3.8-0.3,5.3-0.5c-0.1,1.2-0.1,2.8-0.1,4.6v4.4c0,2.3,1.2,3,2.4,3c1,0,1.8-0.3,2.6-1.1
				V628c0-1.5-0.2-1.8-1.2-1.9l-1-0.2V625c1.9-0.1,4.4-0.3,5.6-0.5v10.2c0,1.6,0.2,1.9,1.3,2l0.8,0.1V637.7z"/>
			<path class="st3" d="M592.4,628.6c-0.7-2-1.7-3.1-3.3-3.1c-0.9,0-1.7,0.7-1.7,1.8c0,1.2,0.8,1.8,2.5,2.5c2.6,1.2,4.2,2.2,4.2,4.5
				c0,3-2.8,4.5-5.5,4.5c-1.6,0-3.2-0.6-3.9-0.9c-0.1-0.8-0.4-2.8-0.5-3.8l1-0.2c0.6,2,1.8,3.7,3.9,3.7c1.2,0,1.9-0.7,1.9-1.8
				c0-1.1-0.6-1.8-2.4-2.7c-2.1-1-4-2.1-4-4.5c0-2.4,2-4.3,5.2-4.3c1.4,0,2.5,0.3,3.2,0.4c0.1,0.8,0.4,2.8,0.5,3.6L592.4,628.6z"/>
			<path class="st3" d="M601.1,638.4c-0.5,0.3-1,0.4-1.3,0.4c-2.3,0-3.6-1.2-3.6-3.9v-8.8h-2l-0.2-0.4l0.9-1.1h1.3v-2.6
				c0.9-0.7,2.2-1.6,3.1-2.3l0.4,0.2c0,1-0.1,2.7-0.1,4.7h3.3c0.3,0.3,0.2,1.2-0.2,1.5h-3v7.7c0,2.5,1,2.8,1.7,2.8
				c0.6,0,1.1-0.2,1.6-0.4l0.3,1L601.1,638.4z"/>
			<path class="st3" d="M611.4,638.4h-7.8v-1c1.8-0.2,1.9-0.3,1.9-2.3v-6.7c0-1.7-0.1-1.9-1.7-2.1v-0.9c1.8-0.2,3.4-0.6,5.2-1.2
				c0,1,0,2.4,0,3.4c1.3-2,2.5-3.3,3.9-3.3c1.2,0,1.9,0.8,1.9,1.7c0,1.2-0.9,2-1.4,2.3c-0.4,0.2-0.7,0.1-0.9-0.1
				c-0.5-0.4-0.9-0.9-1.4-0.9c-0.5,0-1.4,0.6-2,1.9v5.9c0,1.9,0.2,2,2.5,2.3V638.4z"/>
			<path class="st3" d="M615.3,638.4v-1c1.8-0.2,2-0.3,2-2.5v-6.2c0-2-0.1-2.2-1.7-2.4v-0.9c1.8-0.2,3.6-0.6,5.2-1.2
				c0,1.3,0,2.6,0,3.9v6.8c0,2.1,0.2,2.3,2,2.5v1H615.3z M618.8,621.9c-1.1,0-2-0.9-2-2c0-1.2,1-2,2.1-2c1.1,0,2,0.9,2,2
				C620.9,621,620,621.9,618.8,621.9z"/>
			<path class="st3" d="M633.7,638.8c-0.7,0-1.4-0.3-1.8-0.6c-0.4-0.4-0.6-0.8-0.8-1.2c-1.2,0.8-2.7,1.9-3.5,1.9c-2.5,0-4.1-2-4.1-4
				c0-1.6,0.8-2.4,2.5-3.1c1.9-0.7,4.3-1.4,5-2v-1.1c0-1.8-0.8-2.9-2.2-2.9c-0.6,0-1,0.3-1.3,0.7c-0.4,0.5-0.5,1.1-0.8,2
				c-0.2,0.7-0.6,0.9-1.2,0.9c-0.7,0-1.7-0.7-1.7-1.5c0-0.5,0.4-0.9,1.1-1.4c1.2-0.8,3.1-1.8,4.8-2.2c1.1,0,2.2,0.3,3,0.9
				c1.3,0.9,1.7,2.2,1.7,3.8v5.6c0,1.5,0.5,1.9,1,1.9c0.3,0,0.7-0.1,1-0.3l0.3,1L633.7,638.8z M631,630.9c-0.6,0.3-1.5,0.8-2.1,1.1
				c-1,0.5-1.7,1.1-1.7,2.2c0,1.7,1.2,2.4,2,2.4c0.6,0,1.2-0.2,1.8-0.7C631,634.4,631,632.4,631,630.9z"/>
			<path class="st3" d="M636.6,638.4v-1c1.9-0.2,2-0.4,2-2.4v-14.4c0-1.7-0.2-1.9-1.9-2.2v-0.9c2-0.2,4.1-0.6,5.4-1.1
				c0,1.4,0,2.9,0,4.3V635c0,2.1,0.1,2.2,2,2.4v1H636.6z"/>
			<path class="st3" d="M670.2,633.2c-0.4,1.5-1.2,3.9-1.7,4.9c-0.8,0.2-3.4,0.8-5.7,0.8c-8,0-11.6-5.2-11.6-10.4
				c0-6.4,4.9-10.8,12.2-10.8c2.7,0,5,0.6,5.9,0.7c0.1,1.4,0.4,3.6,0.6,5l-1.1,0.2c-0.6-2.3-1.5-3.5-3.1-4.2
				c-0.8-0.3-1.9-0.5-2.9-0.5c-4.7,0-7.2,3.8-7.2,8.8c0,5.8,3,9.7,7.5,9.7c2.8,0,4.5-1.4,6.1-4.7L670.2,633.2z"/>
			<path class="st3" d="M679,624.3c4.2,0,7,3.2,7,7c0,5-3.7,7.5-7.1,7.5c-4.6,0-7.2-3.5-7.2-7.1C671.7,626.8,675.6,624.3,679,624.3z
				 M678.6,625.5c-1.5,0-3,1.6-3,5.3c0,3.9,1.4,6.8,3.6,6.8c1.4,0,2.8-1,2.8-5.5C682.1,628,680.8,625.5,678.6,625.5z"/>
			<path class="st3" d="M696,638.4v-1c1.5-0.2,1.6-0.3,1.6-2.5v-5.3c0-2.2-1-3.2-2.4-3.2c-1,0-1.8,0.5-2.7,1.2v7.4
				c0,2,0.1,2.1,1.6,2.3v1h-7v-1c1.8-0.3,2-0.3,2-2.4v-6.5c0-1.9-0.2-2-1.7-2.3v-0.9c1.7-0.2,3.6-0.6,5.2-1.2c0,0.5,0,1.6,0,2.3
				c0.6-0.4,1.3-0.9,2-1.4c0.9-0.6,1.6-0.9,2.5-0.9c2.5,0,4.1,1.8,4.1,5v5.9c0,2,0.2,2.1,1.8,2.3v1H696z"/>
			<path class="st3" d="M711.9,628.6c-0.7-2-1.7-3.1-3.3-3.1c-0.9,0-1.7,0.7-1.7,1.8c0,1.2,0.8,1.8,2.5,2.5c2.6,1.2,4.2,2.2,4.2,4.5
				c0,3-2.8,4.5-5.5,4.5c-1.6,0-3.2-0.6-3.9-0.9c-0.1-0.8-0.4-2.8-0.5-3.8l1-0.2c0.6,2,1.8,3.7,3.9,3.7c1.2,0,1.9-0.7,1.9-1.8
				c0-1.1-0.6-1.8-2.4-2.7c-2.1-1-4-2.1-4-4.5c0-2.4,2-4.3,5.2-4.3c1.4,0,2.5,0.3,3.2,0.4c0.1,0.8,0.4,2.8,0.5,3.6L711.9,628.6z"/>
			<path class="st3" d="M729.7,637.7c-1.7,0.2-3.6,0.6-5.5,1.1c0-0.6,0-1.5,0-2.2c-1.4,1.2-2.7,2.2-4.5,2.2c-2.4,0-4-1.5-4-4.5V628
				c0-1.5-0.2-1.7-1-1.9l-0.7-0.2V625c1.5-0.1,3.8-0.3,5.3-0.5c-0.1,1.2-0.1,2.8-0.1,4.6v4.4c0,2.3,1.2,3,2.4,3c1,0,1.8-0.3,2.6-1.1
				V628c0-1.5-0.2-1.8-1.2-1.9l-1-0.2V625c1.9-0.1,4.4-0.3,5.6-0.5v10.2c0,1.6,0.2,1.9,1.3,2l0.7,0.1V637.7z"/>
			<path class="st3" d="M729.9,638.4v-1c1.9-0.2,2-0.4,2-2.4v-14.4c0-1.7-0.2-1.9-1.9-2.2v-0.9c2-0.2,4.1-0.6,5.4-1.1
				c0,1.4,0,2.9,0,4.3V635c0,2.1,0.1,2.2,2,2.4v1H729.9z"/>
			<path class="st3" d="M744.3,638.4c-0.5,0.3-1,0.4-1.3,0.4c-2.3,0-3.6-1.2-3.6-3.9v-8.8h-2l-0.2-0.4l0.9-1.1h1.3v-2.6
				c0.9-0.7,2.2-1.6,3.1-2.3l0.4,0.2c0,1-0.1,2.7-0.1,4.7h3.3c0.3,0.3,0.2,1.2-0.2,1.5h-3v7.7c0,2.5,1,2.8,1.7,2.8
				c0.6,0,1.1-0.2,1.6-0.4l0.3,1L744.3,638.4z"/>
			<path class="st3" d="M757,638.8c-0.7,0-1.4-0.3-1.8-0.6c-0.4-0.4-0.6-0.8-0.8-1.2c-1.2,0.8-2.7,1.9-3.5,1.9c-2.5,0-4.1-2-4.1-4
				c0-1.6,0.8-2.4,2.5-3.1c1.9-0.7,4.3-1.4,5-2v-1.1c0-1.8-0.8-2.9-2.2-2.9c-0.6,0-1,0.3-1.3,0.7c-0.4,0.5-0.5,1.1-0.8,2
				c-0.2,0.7-0.6,0.9-1.2,0.9c-0.7,0-1.7-0.7-1.7-1.5c0-0.5,0.4-0.9,1.1-1.4c1.2-0.8,3.1-1.8,4.8-2.2c1.1,0,2.2,0.3,3,0.9
				c1.3,0.9,1.7,2.2,1.7,3.8v5.6c0,1.5,0.5,1.9,1,1.9c0.3,0,0.7-0.1,1-0.3l0.3,1L757,638.8z M754.4,630.9c-0.6,0.3-1.5,0.8-2.1,1.1
				c-1,0.5-1.7,1.1-1.7,2.2c0,1.7,1.2,2.4,2,2.4c0.6,0,1.2-0.2,1.8-0.7C754.4,634.4,754.4,632.4,754.4,630.9z"/>
			<path class="st3" d="M769.3,638.4v-1c1.5-0.2,1.6-0.3,1.6-2.5v-5.3c0-2.2-1-3.2-2.4-3.2c-1,0-1.8,0.5-2.7,1.2v7.4
				c0,2,0.1,2.1,1.6,2.3v1h-7v-1c1.8-0.3,2-0.3,2-2.4v-6.5c0-1.9-0.2-2-1.7-2.3v-0.9c1.7-0.2,3.6-0.6,5.2-1.2c0,0.5,0,1.6,0,2.3
				c0.6-0.4,1.3-0.9,2-1.4c0.9-0.6,1.6-0.9,2.5-0.9c2.5,0,4.1,1.8,4.1,5v5.9c0,2,0.2,2.1,1.8,2.3v1H769.3z"/>
			<path class="st3" d="M783.1,638.4c-0.5,0.3-1,0.4-1.3,0.4c-2.3,0-3.6-1.2-3.6-3.9v-8.8h-2l-0.2-0.4l0.9-1.1h1.3v-2.6
				c0.9-0.7,2.2-1.6,3.1-2.3l0.4,0.2c0,1-0.1,2.7-0.1,4.7h3.3c0.3,0.3,0.2,1.2-0.2,1.5h-3v7.7c0,2.5,1,2.8,1.7,2.8
				c0.6,0,1.1-0.2,1.6-0.4l0.3,1L783.1,638.4z"/>
			<path class="st3" d="M794.1,628.6c-0.7-2-1.7-3.1-3.3-3.1c-0.9,0-1.7,0.7-1.7,1.8c0,1.2,0.8,1.8,2.5,2.5c2.6,1.2,4.2,2.2,4.2,4.5
				c0,3-2.8,4.5-5.5,4.5c-1.6,0-3.2-0.6-3.9-0.9c-0.1-0.8-0.4-2.8-0.5-3.8l1-0.2c0.6,2,1.8,3.7,3.9,3.7c1.2,0,1.9-0.7,1.9-1.8
				c0-1.1-0.6-1.8-2.4-2.7c-2.1-1-4-2.1-4-4.5c0-2.4,2-4.3,5.2-4.3c1.4,0,2.5,0.3,3.2,0.4c0.1,0.8,0.4,2.8,0.5,3.6L794.1,628.6z"/>
		</g>
	</g>
</g>
</svg>
