<?xml version="1.0" encoding="utf-8"?>
<!-- Generator: Adobe Illustrator 27.1.1, SVG Export Plug-In . SVG Version: 6.00 Build 0)  -->
<svg version="1.1" id="Layer_1" xmlns="http://www.w3.org/2000/svg" xmlns:xlink="http://www.w3.org/1999/xlink" x="0px" y="0px"
	 viewBox="0 0 1080 1080" style="enable-background:new 0 0 1080 1080;" xml:space="preserve">
<style type="text/css">
	.st0{fill:#2A2D72;}
	.st1{fill:#55B7E1;}
	.st2{fill:#808080;}
	.st3{fill:#221B37;}
</style>
<g>
	<path class="st0" d="M488,243.9l-39-84.7c0,0,73-26.2,115.3-4.3c2.6,1.3,4,4.2,3.6,7C566.2,173.6,555.1,205.3,488,243.9z"/>
	<path class="st1" d="M579.8,156.3c0,0,30.7,33-100.1,108.4s-205,171.9-131.5,232.4s223-34.3,227.4-50.5c0,0-135.2,92.8-219.3,46.7
		c0,0,1.5-75.4,211.7-181.3C568,312,688.6,248,579.8,156.3z"/>
	<path class="st0" d="M576.3,345c0,0,31.2,39.9,33.6,54.2c0,0,51.1-10.6,84.7,5.6c0,0-46.5,117.7-245.7,155.1
		c0,0-194.8,39.2-190.4-75.4l-6.9-0.6c0,0-34.9,107.8,184.4,94.7c0,0,301.1-60.6,273.7-203.1c-2.1-10.8-8.5-20.3-17.8-26.1
		C673.8,338.1,636.7,324.9,576.3,345z"/>
	<polygon class="st1" points="604.6,546.3 623.9,534.1 672.8,593 650.4,599.5 	"/>
	<path class="st1" d="M642.3,522.3l27.1-12.2l42.2,53.6c0,0-4.2,6.2-19.8,4.7c0,0-8.7,1.6-9,5.9L642.3,522.3z"/>
	<polygon class="st1" points="680,486.8 707.7,479 742.6,532.3 716.4,536.3 	"/>
	<path class="st1" d="M707.4,448.2l24.3-9.3l35.5,54.8c0,0-1.6,3.1-15,3.3c0,0-6.2,0.8-9.7,6.7L707.4,448.2z"/>
	<path class="st1" d="M746.8,399.9l37.8,60l-15.9,11.4l-25.5-41.6c-2.5-4.1-5.9-7.6-10-10.2l-6.6-4.3c-2.1-1.4-1.9-4.5,0.3-5.7
		L746.8,399.9z"/>
	<path class="st1" d="M774.4,423.1l11.7-6.9l-33.2-48.4l-15.5,9.1c-1.3,0.8-1.4,2.7-0.1,3.5l4.6,3.1c5.1,3.4,9.6,7.7,13.2,12.8
		L774.4,423.1z"/>
	<polygon class="st1" points="737.3,331.1 751.5,353.1 731,353.1 726.6,345.7 	"/>
	<g>
		<path class="st2" d="M231.5,771.3h-15.4v-96.5h16c8.4,0,14.3,2.3,17.8,6.9c3,4,4.5,10.3,4.5,18.9c0,12.1-4.1,19.2-12.2,21.4v0.3
			c9,2.8,13.6,10.4,13.6,22.7c0,9-1.8,15.5-5.4,19.7C246.6,769.1,240.3,771.3,231.5,771.3z M241.9,700.2c0-9.6-3.8-14.4-11.4-14.4
			h-2.2v31.5c5.5,0.3,9.2-1.3,11.3-4.6C241.1,710.2,241.9,706,241.9,700.2z M228.3,727.5v32.8c5.4,0.3,9.1-1,11.3-3.8
			c1.8-2.5,2.7-6.5,2.7-12c0-5.8-0.9-9.9-2.6-12.4C237.7,729,233.9,727.5,228.3,727.5z"/>
		<path class="st2" d="M267.5,706.7h12v40.5c0,4.7,0.2,7.8,0.6,9.2c0.9,3.3,3.2,5,6.8,5c3.5,0,5.7-1.5,6.7-4.6
			c0.3-1.2,0.5-4.2,0.5-9v-41.1h12v43.7c0,7.2-1.3,12.5-3.8,16c-3,4-7.9,6-14.9,6c-8.1,0-13.6-2.3-16.5-6.8
			c-2.3-3.6-3.5-9.5-3.5-17.8V706.7z"/>
		<path class="st2" d="M341.7,708.5v11.4c-2.6-2.3-5.5-3.5-9-3.5c-2.2,0-4.1,0.6-5.8,1.9c-1.6,1.2-2.4,2.9-2.4,5.1
			c0.1,2.8,1.9,5.6,5.4,8.5c5.8,4.6,9,7.2,9.6,7.8c3.5,3.8,5.2,8.4,5.2,13.6c0,5.7-1.7,10.4-5,13.9c-3.3,3.5-7.9,5.3-13.6,5.3
			c-3.6,0-7.1-1-10.5-3.1v-11.8c3.4,2.7,6.7,4.1,10,4.1c5.4,0,8.1-2.7,8.1-8.2c0-2.7-1.9-5.9-5.8-9.5c-3.1-2.5-6.1-4.9-9.2-7.4
			c-3.5-3.7-5.2-8.1-5.2-13.2c0-5.1,1.6-9.3,4.8-12.7c3.2-3.3,7.4-5,12.5-5C335,705.6,338.6,706.6,341.7,708.5z"/>
		<path class="st2" d="M358.6,695.1c-2.2,0-4.1-0.8-5.7-2.4c-1.6-1.6-2.4-3.5-2.4-5.7c0-2.2,0.8-4.1,2.4-5.6
			c1.6-1.5,3.5-2.3,5.7-2.3c2.1,0,4,0.8,5.6,2.4c1.6,1.6,2.4,3.4,2.4,5.6c0,2.2-0.8,4.1-2.3,5.7
			C362.7,694.4,360.9,695.1,358.6,695.1z M364.5,706.7v64.7h-12v-64.7H364.5z"/>
		<path class="st2" d="M387.7,706.7v7.4c2.9-5.6,7.3-8.4,13.2-8.4c5.8,0,9.6,2.3,11.5,6.9c1.2,2.9,1.8,7.7,1.8,14.3v44.4h-12v-44.7
			c0-6.8-2.4-10.2-7.2-10.2c-3.4,0-5.6,1.8-6.7,5.2c-0.4,1.5-0.6,4.7-0.6,9.3v40.3h-12v-64.7H387.7z"/>
		<path class="st2" d="M462.3,741.4h-26.6c0,13.5,2.5,20.2,7.6,20.2c5,0,7.6-4,7.6-12H462c0,6.6-1.5,11.9-4.4,15.9
			c-3.3,4.6-8.2,6.9-14.5,6.9c-8,0-13.6-3.8-16.6-11.3c-2-5-3.1-12.2-3.1-21.6c0-22.5,6.4-33.8,19.3-33.8
			c13.1,0,19.6,11.3,19.6,33.8V741.4z M435.7,732.8h14.3c0-10.9-2.4-16.4-7.3-16.4c-3.2,0-5.4,2.1-6.4,6.3
			C435.9,724.5,435.7,727.8,435.7,732.8z"/>
		<path class="st2" d="M496,708.5v11.4c-2.6-2.3-5.5-3.5-9-3.5c-2.2,0-4.1,0.6-5.8,1.9c-1.6,1.2-2.4,2.9-2.4,5.1
			c0.1,2.8,1.9,5.6,5.4,8.5c5.8,4.6,9,7.2,9.6,7.8c3.5,3.8,5.2,8.4,5.2,13.6c0,5.7-1.7,10.4-5,13.9c-3.3,3.5-7.9,5.3-13.6,5.3
			c-3.6,0-7.1-1-10.5-3.1v-11.8c3.4,2.7,6.7,4.1,10,4.1c5.4,0,8.1-2.7,8.1-8.2c0-2.7-1.9-5.9-5.8-9.5c-3.1-2.5-6.1-4.9-9.2-7.4
			c-3.5-3.7-5.2-8.1-5.2-13.2c0-5.1,1.6-9.3,4.8-12.7c3.2-3.3,7.4-5,12.5-5C489.2,705.6,492.9,706.6,496,708.5z"/>
		<path class="st2" d="M531.4,708.5v11.4c-2.6-2.3-5.5-3.5-9-3.5c-2.2,0-4.1,0.6-5.8,1.9c-1.6,1.2-2.4,2.9-2.4,5.1
			c0.1,2.8,1.9,5.6,5.4,8.5c5.8,4.6,9,7.2,9.6,7.8c3.5,3.8,5.2,8.4,5.2,13.6c0,5.7-1.7,10.4-5,13.9c-3.3,3.5-7.9,5.3-13.6,5.3
			c-3.6,0-7.1-1-10.5-3.1v-11.8c3.4,2.7,6.7,4.1,10,4.1c5.4,0,8.1-2.7,8.1-8.2c0-2.7-1.9-5.9-5.8-9.5c-3.1-2.5-6.1-4.9-9.2-7.4
			c-3.5-3.7-5.2-8.1-5.2-13.2c0-5.1,1.6-9.3,4.8-12.7c3.2-3.3,7.4-5,12.5-5C524.6,705.6,528.2,706.6,531.4,708.5z"/>
		<path class="st2" d="M600.6,676.7l-0.1,12.9c-3.8-2.7-7.4-4.1-10.9-4.1c-3.4,0-6.2,1.2-8.3,3.6c-2.1,2.4-3.1,5.3-3.1,8.8
			c0,4.4,1.2,7.9,3.6,10.5l9.7,10.6c5,5.5,8.4,9.7,10,12.7c2.5,4.5,3.7,9.7,3.7,15.6c0,7-2,12.9-6,17.7c-4.2,5-9.7,7.6-16.6,7.6
			c-5.5,0-10.2-1.5-14.1-4.6v-12.9c4.5,3.3,8.7,5,12.7,5c3.7,0,6.5-1.4,8.6-4.1c1.8-2.4,2.7-5.5,2.7-9.3c0-5.3-2.3-10.5-7-15.5
			c-1.9-2-6.2-6.4-12.9-13.3c-4.7-5.9-7-12.4-7-19.6c0-7.2,1.8-13,5.4-17.4c3.8-4.9,9.3-7.3,16.3-7.3
			C592.4,673.5,596.9,674.6,600.6,676.7z"/>
		<path class="st2" d="M632.2,772.3c-13.6,0-20.4-11.1-20.4-33.2c0-22.4,6.8-33.5,20.4-33.5c13.6,0,20.4,11.2,20.4,33.5
			C652.6,761.3,645.8,772.3,632.2,772.3z M632.2,761.3c3.9,0,6.4-3.1,7.6-9.3c0.3-2,0.5-6.2,0.5-12.8c0-6.8-0.2-11.2-0.5-13.2
			c-1.1-6.2-3.6-9.3-7.6-9.3c-3.8,0-6.3,3.1-7.4,9.3c-0.4,2.5-0.6,6.9-0.6,13.2c0,6.1,0.2,10.3,0.6,12.8
			C625.9,758.2,628.4,761.3,632.2,761.3z"/>
		<path class="st2" d="M673.7,665.1v106.3h-12V665.1H673.7z"/>
		<path class="st2" d="M684.9,706.7h12v40.5c0,4.7,0.2,7.8,0.6,9.2c0.9,3.3,3.2,5,6.8,5c3.5,0,5.7-1.5,6.7-4.6
			c0.3-1.2,0.5-4.2,0.5-9v-41.1h12v43.7c0,7.2-1.3,12.5-3.8,16c-3,4-7.9,6-14.9,6c-8.1,0-13.6-2.3-16.5-6.8
			c-2.3-3.6-3.5-9.5-3.5-17.8V706.7z"/>
		<path class="st2" d="M737.2,688.4h12v18.3h6.4v9.5h-6.4v55.2h-12v-55.2h-6.5v-9.5h6.5V688.4z"/>
		<path class="st2" d="M769,695.1c-2.2,0-4.1-0.8-5.7-2.4c-1.6-1.6-2.4-3.5-2.4-5.7c0-2.2,0.8-4.1,2.4-5.6c1.6-1.5,3.5-2.3,5.7-2.3
			c2.1,0,4,0.8,5.6,2.4c1.6,1.6,2.4,3.4,2.4,5.6c0,2.2-0.8,4.1-2.3,5.7C773.1,694.4,771.2,695.1,769,695.1z M774.9,706.7v64.7h-12
			v-64.7H774.9z"/>
		<path class="st2" d="M804.4,772.3c-13.6,0-20.4-11.1-20.4-33.2c0-22.4,6.8-33.5,20.4-33.5c13.6,0,20.4,11.2,20.4,33.5
			C824.8,761.3,818,772.3,804.4,772.3z M804.4,761.3c3.9,0,6.4-3.1,7.6-9.3c0.3-2,0.5-6.2,0.5-12.8c0-6.8-0.2-11.2-0.5-13.2
			c-1.1-6.2-3.6-9.3-7.6-9.3c-3.8,0-6.3,3.1-7.4,9.3c-0.4,2.5-0.6,6.9-0.6,13.2c0,6.1,0.2,10.3,0.6,12.8
			C798.1,758.2,800.6,761.3,804.4,761.3z"/>
		<path class="st2" d="M846,706.7v7.4c2.9-5.6,7.3-8.4,13.2-8.4c5.8,0,9.6,2.3,11.5,6.9c1.2,2.9,1.8,7.7,1.8,14.3v44.4h-12v-44.7
			c0-6.8-2.4-10.2-7.2-10.2c-3.4,0-5.6,1.8-6.7,5.2c-0.4,1.5-0.6,4.7-0.6,9.3v40.3h-12v-64.7H846z"/>
	</g>
	<g>
		<path d="M354.2,872.6c0,0.7,0,1.3-0.1,1.8c-0.1,0.5-0.2,0.9-0.3,1.2c-0.1,0.3-0.3,0.5-0.5,0.7c-0.2,0.1-0.4,0.2-0.6,0.2h-24.5
			c-0.8,0-1.5-0.2-2.1-0.7c-0.6-0.5-0.8-1.3-0.8-2.4v-42.5c0-1.1,0.3-1.9,0.8-2.4c0.6-0.5,1.3-0.7,2.1-0.7h24.3
			c0.2,0,0.4,0.1,0.6,0.2c0.2,0.1,0.3,0.3,0.5,0.7c0.1,0.3,0.2,0.7,0.3,1.2c0.1,0.5,0.1,1.1,0.1,1.9c0,0.7,0,1.3-0.1,1.8
			c-0.1,0.5-0.2,0.9-0.3,1.2c-0.1,0.3-0.3,0.5-0.5,0.7c-0.2,0.1-0.4,0.2-0.6,0.2h-17.4v11.9H350c0.2,0,0.4,0.1,0.6,0.2
			c0.2,0.1,0.3,0.4,0.5,0.6c0.1,0.3,0.2,0.7,0.3,1.2c0.1,0.5,0.1,1.1,0.1,1.8c0,0.7,0,1.3-0.1,1.8c-0.1,0.5-0.2,0.9-0.3,1.1
			c-0.1,0.3-0.3,0.5-0.5,0.6c-0.2,0.1-0.4,0.2-0.6,0.2h-14.7v13.7h17.5c0.2,0,0.4,0.1,0.6,0.2c0.2,0.1,0.3,0.4,0.5,0.7
			c0.1,0.3,0.2,0.7,0.3,1.2C354.2,871.3,354.2,871.9,354.2,872.6z"/>
		<path d="M403.2,873c0,0.6-0.1,1.1-0.3,1.5c-0.2,0.5-0.5,0.8-0.8,1.1c-0.3,0.3-0.7,0.5-1.2,0.7c-0.5,0.1-0.9,0.2-1.4,0.2h-4.2
			c-0.9,0-1.6-0.1-2.3-0.3c-0.6-0.2-1.2-0.5-1.8-1c-0.5-0.5-1.1-1.1-1.6-1.9c-0.5-0.8-1.1-1.8-1.7-3.1l-12.1-22.8
			c-0.7-1.4-1.4-2.8-2.1-4.4c-0.7-1.6-1.4-3.1-2-4.6h-0.1c0.1,1.8,0.2,3.6,0.2,5.4c0,1.8,0.1,3.6,0.1,5.6v25.5
			c0,0.3-0.1,0.5-0.2,0.7c-0.1,0.2-0.4,0.4-0.7,0.5c-0.3,0.1-0.8,0.2-1.4,0.3c-0.6,0.1-1.3,0.1-2.2,0.1c-0.9,0-1.6,0-2.2-0.1
			c-0.6-0.1-1-0.2-1.4-0.3c-0.3-0.1-0.6-0.3-0.7-0.5c-0.1-0.2-0.2-0.4-0.2-0.7v-43.8c0-1.2,0.3-2.1,1-2.7c0.7-0.6,1.5-0.9,2.5-0.9
			h5.3c1,0,1.8,0.1,2.4,0.2c0.7,0.2,1.2,0.4,1.8,0.8c0.5,0.4,1,0.9,1.4,1.6c0.5,0.7,0.9,1.5,1.4,2.5l9.5,17.8
			c0.6,1.1,1.1,2.1,1.6,3.2c0.5,1,1.1,2.1,1.6,3.1c0.5,1,1,2.1,1.5,3.1c0.5,1,0.9,2,1.4,3h0c-0.1-1.8-0.1-3.6-0.2-5.5
			c0-1.9-0.1-3.7-0.1-5.5v-22.9c0-0.3,0.1-0.5,0.2-0.7c0.2-0.2,0.4-0.4,0.8-0.5c0.4-0.1,0.8-0.3,1.4-0.3c0.6-0.1,1.3-0.1,2.2-0.1
			c0.9,0,1.6,0,2.1,0.1c0.6,0.1,1,0.2,1.3,0.3c0.3,0.2,0.5,0.3,0.7,0.5c0.1,0.2,0.2,0.4,0.2,0.7V873z"/>
		<path d="M452.9,835.3c0,0.7,0,1.4-0.1,1.9c-0.1,0.5-0.2,0.9-0.3,1.3c-0.1,0.3-0.3,0.5-0.4,0.7c-0.2,0.1-0.4,0.2-0.6,0.2
			c-0.3,0-0.9-0.2-1.6-0.7c-0.7-0.5-1.7-0.9-2.9-1.5c-1.2-0.5-2.6-1-4.3-1.5c-1.7-0.5-3.6-0.7-5.8-0.7c-2.4,0-4.5,0.4-6.4,1.2
			c-1.9,0.8-3.5,2-4.9,3.5c-1.4,1.5-2.4,3.3-3.1,5.4c-0.7,2.1-1.1,4.4-1.1,6.9c0,2.8,0.4,5.2,1.1,7.4c0.7,2.1,1.8,3.9,3.1,5.3
			c1.3,1.4,2.9,2.5,4.8,3.2c1.9,0.7,3.9,1.1,6.2,1.1c1.1,0,2.2-0.1,3.3-0.4c1.1-0.2,2.1-0.6,3-1.1v-11.3h-9.2
			c-0.5,0-0.8-0.3-1.1-0.8c-0.3-0.6-0.4-1.5-0.4-2.9c0-0.7,0-1.3,0.1-1.8c0.1-0.5,0.2-0.9,0.3-1.1c0.1-0.3,0.3-0.5,0.5-0.6
			c0.2-0.1,0.4-0.2,0.6-0.2h16.5c0.4,0,0.8,0.1,1.1,0.2c0.3,0.1,0.6,0.3,0.8,0.6c0.2,0.3,0.4,0.6,0.5,1c0.1,0.4,0.2,0.8,0.2,1.3
			v19.4c0,0.8-0.1,1.4-0.4,2c-0.3,0.6-0.8,1-1.6,1.3c-0.8,0.3-1.8,0.7-3,1c-1.2,0.4-2.5,0.7-3.7,0.9c-1.3,0.3-2.6,0.4-3.9,0.6
			c-1.3,0.1-2.6,0.2-4,0.2c-3.9,0-7.4-0.6-10.4-1.7c-3.1-1.1-5.7-2.7-7.8-4.9c-2.1-2.1-3.8-4.7-4.9-7.8c-1.1-3.1-1.7-6.5-1.7-10.4
			c0-4,0.6-7.6,1.8-10.7c1.2-3.2,2.9-5.9,5.1-8.1c2.2-2.2,4.9-3.9,8-5.1c3.1-1.2,6.6-1.8,10.4-1.8c2.1,0,4,0.1,5.8,0.4
			c1.7,0.3,3.2,0.6,4.5,1.1c1.3,0.4,2.4,0.9,3.2,1.3c0.9,0.5,1.4,0.9,1.8,1.2c0.3,0.4,0.6,0.8,0.7,1.5
			C452.8,833.1,452.9,834.1,452.9,835.3z"/>
		<path d="M472.8,875.1c0,0.3-0.1,0.5-0.2,0.7c-0.2,0.2-0.4,0.4-0.8,0.5c-0.4,0.1-0.9,0.2-1.5,0.3c-0.6,0.1-1.4,0.1-2.4,0.1
			c-1,0-1.8,0-2.4-0.1c-0.6-0.1-1.1-0.2-1.5-0.3c-0.4-0.1-0.6-0.3-0.8-0.5c-0.2-0.2-0.2-0.4-0.2-0.7v-46c0-0.3,0.1-0.5,0.2-0.7
			c0.2-0.2,0.4-0.4,0.8-0.5c0.4-0.1,0.9-0.2,1.5-0.3c0.6-0.1,1.4-0.1,2.4-0.1c1,0,1.8,0,2.4,0.1c0.6,0.1,1.1,0.2,1.5,0.3
			c0.4,0.1,0.6,0.3,0.8,0.5c0.2,0.2,0.2,0.4,0.2,0.7V875.1z"/>
		<path d="M523.6,873c0,0.6-0.1,1.1-0.3,1.5c-0.2,0.5-0.5,0.8-0.8,1.1c-0.3,0.3-0.7,0.5-1.2,0.7c-0.5,0.1-0.9,0.2-1.4,0.2h-4.2
			c-0.9,0-1.6-0.1-2.3-0.3c-0.6-0.2-1.2-0.5-1.8-1c-0.5-0.5-1.1-1.1-1.6-1.9c-0.5-0.8-1.1-1.8-1.7-3.1l-12.1-22.8
			c-0.7-1.4-1.4-2.8-2.1-4.4c-0.7-1.6-1.4-3.1-2-4.6h-0.1c0.1,1.8,0.2,3.6,0.2,5.4c0,1.8,0.1,3.6,0.1,5.6v25.5
			c0,0.3-0.1,0.5-0.2,0.7c-0.1,0.2-0.4,0.4-0.7,0.5c-0.3,0.1-0.8,0.2-1.4,0.3c-0.6,0.1-1.3,0.1-2.2,0.1c-0.9,0-1.6,0-2.2-0.1
			c-0.6-0.1-1-0.2-1.4-0.3c-0.3-0.1-0.6-0.3-0.7-0.5c-0.1-0.2-0.2-0.4-0.2-0.7v-43.8c0-1.2,0.3-2.1,1-2.7c0.7-0.6,1.5-0.9,2.5-0.9
			h5.3c1,0,1.8,0.1,2.4,0.2c0.7,0.2,1.2,0.4,1.8,0.8c0.5,0.4,1,0.9,1.4,1.6c0.5,0.7,0.9,1.5,1.4,2.5l9.5,17.8
			c0.6,1.1,1.1,2.1,1.6,3.2c0.5,1,1.1,2.1,1.6,3.1c0.5,1,1,2.1,1.5,3.1c0.5,1,0.9,2,1.4,3h0c-0.1-1.8-0.1-3.6-0.2-5.5
			c0-1.9-0.1-3.7-0.1-5.5v-22.9c0-0.3,0.1-0.5,0.2-0.7c0.2-0.2,0.4-0.4,0.8-0.5c0.4-0.1,0.8-0.3,1.4-0.3c0.6-0.1,1.3-0.1,2.2-0.1
			c0.9,0,1.6,0,2.1,0.1c0.6,0.1,1,0.2,1.3,0.3c0.3,0.2,0.5,0.3,0.7,0.5c0.1,0.2,0.2,0.4,0.2,0.7V873z"/>
		<path d="M563.1,872.6c0,0.7,0,1.3-0.1,1.8c-0.1,0.5-0.2,0.9-0.3,1.2c-0.1,0.3-0.3,0.5-0.5,0.7c-0.2,0.1-0.4,0.2-0.6,0.2h-24.5
			c-0.8,0-1.5-0.2-2.1-0.7c-0.6-0.5-0.8-1.3-0.8-2.4v-42.5c0-1.1,0.3-1.9,0.8-2.4c0.6-0.5,1.3-0.7,2.1-0.7h24.3
			c0.2,0,0.4,0.1,0.6,0.2c0.2,0.1,0.3,0.3,0.5,0.7c0.1,0.3,0.2,0.7,0.3,1.2c0.1,0.5,0.1,1.1,0.1,1.9c0,0.7,0,1.3-0.1,1.8
			c-0.1,0.5-0.2,0.9-0.3,1.2c-0.1,0.3-0.3,0.5-0.5,0.7c-0.2,0.1-0.4,0.2-0.6,0.2h-17.4v11.9h14.7c0.2,0,0.4,0.1,0.6,0.2
			c0.2,0.1,0.3,0.4,0.5,0.6c0.1,0.3,0.2,0.7,0.3,1.2c0.1,0.5,0.1,1.1,0.1,1.8c0,0.7,0,1.3-0.1,1.8c-0.1,0.5-0.2,0.9-0.3,1.1
			c-0.1,0.3-0.3,0.5-0.5,0.6c-0.2,0.1-0.4,0.2-0.6,0.2h-14.7v13.7h17.5c0.2,0,0.4,0.1,0.6,0.2c0.2,0.1,0.3,0.4,0.5,0.7
			c0.1,0.3,0.2,0.7,0.3,1.2C563.1,871.3,563.1,871.9,563.1,872.6z"/>
		<path d="M600.7,872.6c0,0.7,0,1.3-0.1,1.8c-0.1,0.5-0.2,0.9-0.3,1.2c-0.1,0.3-0.3,0.5-0.5,0.7c-0.2,0.1-0.4,0.2-0.6,0.2h-24.5
			c-0.8,0-1.5-0.2-2.1-0.7c-0.6-0.5-0.8-1.3-0.8-2.4v-42.5c0-1.1,0.3-1.9,0.8-2.4c0.6-0.5,1.3-0.7,2.1-0.7h24.3
			c0.2,0,0.4,0.1,0.6,0.2c0.2,0.1,0.3,0.3,0.5,0.7c0.1,0.3,0.2,0.7,0.3,1.2c0.1,0.5,0.1,1.1,0.1,1.9c0,0.7,0,1.3-0.1,1.8
			c-0.1,0.5-0.2,0.9-0.3,1.2c-0.1,0.3-0.3,0.5-0.5,0.7c-0.2,0.1-0.4,0.2-0.6,0.2h-17.4v11.9h14.7c0.2,0,0.4,0.1,0.6,0.2
			c0.2,0.1,0.3,0.4,0.5,0.6c0.1,0.3,0.2,0.7,0.3,1.2c0.1,0.5,0.1,1.1,0.1,1.8c0,0.7,0,1.3-0.1,1.8c-0.1,0.5-0.2,0.9-0.3,1.1
			c-0.1,0.3-0.3,0.5-0.5,0.6c-0.2,0.1-0.4,0.2-0.6,0.2h-14.7v13.7h17.5c0.2,0,0.4,0.1,0.6,0.2c0.2,0.1,0.3,0.4,0.5,0.7
			c0.1,0.3,0.2,0.7,0.3,1.2C600.7,871.3,600.7,871.9,600.7,872.6z"/>
		<path d="M645.6,875.2c0,0.3,0,0.5-0.1,0.7c-0.1,0.2-0.3,0.3-0.7,0.5c-0.4,0.1-0.9,0.2-1.7,0.3c-0.7,0-1.7,0.1-3,0.1
			c-1.1,0-1.9,0-2.5-0.1c-0.6-0.1-1.1-0.1-1.5-0.3s-0.6-0.3-0.8-0.5c-0.2-0.2-0.3-0.5-0.4-0.8l-4.4-10.9c-0.5-1.2-1-2.3-1.5-3.3
			s-1.1-1.8-1.7-2.4c-0.6-0.6-1.3-1.1-2.1-1.4c-0.8-0.3-1.7-0.5-2.8-0.5h-3.1v18.6c0,0.3-0.1,0.5-0.2,0.7c-0.2,0.2-0.4,0.4-0.8,0.5
			s-0.9,0.2-1.5,0.3c-0.6,0.1-1.4,0.1-2.4,0.1c-1,0-1.8,0-2.4-0.1c-0.6-0.1-1.1-0.2-1.5-0.3s-0.6-0.3-0.8-0.5
			c-0.2-0.2-0.2-0.4-0.2-0.7v-44.2c0-1.1,0.3-1.9,0.8-2.4c0.6-0.5,1.3-0.7,2.1-0.7H625c1.3,0,2.3,0,3.2,0.1c0.8,0.1,1.6,0.1,2.3,0.2
			c2,0.3,3.7,0.8,5.3,1.4c1.6,0.7,2.9,1.6,4,2.7c1.1,1.1,1.9,2.4,2.5,3.9c0.6,1.5,0.9,3.2,0.9,5.1c0,1.6-0.2,3.1-0.6,4.5
			c-0.4,1.3-1,2.5-1.8,3.6c-0.8,1.1-1.8,2-3,2.7c-1.2,0.8-2.5,1.4-4,1.9c0.7,0.4,1.4,0.8,2.1,1.3c0.6,0.5,1.2,1.1,1.8,1.8
			c0.6,0.7,1.1,1.5,1.6,2.4c0.5,0.9,1,2,1.5,3.1l4.1,9.6c0.4,1,0.6,1.7,0.8,2.1C645.6,874.6,645.6,875,645.6,875.2z M632.9,842.2
			c0-1.6-0.4-3-1.1-4.1c-0.7-1.1-1.9-1.9-3.6-2.3c-0.5-0.1-1.1-0.2-1.7-0.3c-0.6-0.1-1.5-0.1-2.7-0.1h-4.4v13.8h5
			c1.4,0,2.6-0.2,3.7-0.5c1.1-0.3,1.9-0.8,2.6-1.4c0.7-0.6,1.2-1.3,1.6-2.2C632.7,844.2,632.9,843.2,632.9,842.2z"/>
		<path d="M662.8,875.1c0,0.3-0.1,0.5-0.2,0.7c-0.2,0.2-0.4,0.4-0.8,0.5s-0.9,0.2-1.5,0.3c-0.6,0.1-1.4,0.1-2.4,0.1
			c-1,0-1.8,0-2.4-0.1c-0.6-0.1-1.1-0.2-1.5-0.3c-0.4-0.1-0.6-0.3-0.8-0.5c-0.2-0.2-0.2-0.4-0.2-0.7v-46c0-0.3,0.1-0.5,0.2-0.7
			c0.2-0.2,0.4-0.4,0.8-0.5c0.4-0.1,0.9-0.2,1.5-0.3c0.6-0.1,1.4-0.1,2.4-0.1c1,0,1.8,0,2.4,0.1c0.6,0.1,1.1,0.2,1.5,0.3
			c0.4,0.1,0.6,0.3,0.8,0.5c0.2,0.2,0.2,0.4,0.2,0.7V875.1z"/>
		<path d="M713.6,873c0,0.6-0.1,1.1-0.3,1.5c-0.2,0.5-0.5,0.8-0.8,1.1c-0.3,0.3-0.7,0.5-1.2,0.7c-0.5,0.1-0.9,0.2-1.4,0.2h-4.2
			c-0.9,0-1.6-0.1-2.3-0.3c-0.6-0.2-1.2-0.5-1.8-1s-1.1-1.1-1.6-1.9c-0.5-0.8-1.1-1.8-1.7-3.1l-12.1-22.8c-0.7-1.4-1.4-2.8-2.1-4.4
			c-0.7-1.6-1.4-3.1-2-4.6h-0.1c0.1,1.8,0.2,3.6,0.2,5.4c0,1.8,0.1,3.6,0.1,5.6v25.5c0,0.3-0.1,0.5-0.2,0.7
			c-0.1,0.2-0.4,0.4-0.7,0.5c-0.3,0.1-0.8,0.2-1.4,0.3c-0.6,0.1-1.3,0.1-2.2,0.1c-0.9,0-1.6,0-2.2-0.1c-0.6-0.1-1-0.2-1.4-0.3
			c-0.3-0.1-0.6-0.3-0.7-0.5c-0.1-0.2-0.2-0.4-0.2-0.7v-43.8c0-1.2,0.3-2.1,1-2.7c0.7-0.6,1.5-0.9,2.5-0.9h5.3c1,0,1.8,0.1,2.4,0.2
			c0.7,0.2,1.2,0.4,1.8,0.8c0.5,0.4,1,0.9,1.4,1.6c0.5,0.7,0.9,1.5,1.4,2.5l9.5,17.8c0.6,1.1,1.1,2.1,1.6,3.2c0.5,1,1.1,2.1,1.6,3.1
			c0.5,1,1,2.1,1.5,3.1c0.5,1,0.9,2,1.4,3h0c-0.1-1.8-0.1-3.6-0.2-5.5c0-1.9-0.1-3.7-0.1-5.5v-22.9c0-0.3,0.1-0.5,0.2-0.7
			c0.1-0.2,0.4-0.4,0.8-0.5c0.4-0.1,0.8-0.3,1.4-0.3c0.6-0.1,1.3-0.1,2.2-0.1c0.9,0,1.6,0,2.1,0.1c0.6,0.1,1,0.2,1.3,0.3
			c0.3,0.2,0.5,0.3,0.7,0.5c0.1,0.2,0.2,0.4,0.2,0.7V873z"/>
		<path d="M763.3,835.3c0,0.7,0,1.4-0.1,1.9c-0.1,0.5-0.2,0.9-0.3,1.3c-0.1,0.3-0.3,0.5-0.4,0.7c-0.2,0.1-0.4,0.2-0.6,0.2
			c-0.3,0-0.9-0.2-1.6-0.7c-0.7-0.5-1.7-0.9-2.9-1.5c-1.2-0.5-2.6-1-4.3-1.5c-1.7-0.5-3.6-0.7-5.8-0.7c-2.4,0-4.5,0.4-6.4,1.2
			c-1.9,0.8-3.5,2-4.9,3.5c-1.4,1.5-2.4,3.3-3.1,5.4c-0.7,2.1-1.1,4.4-1.1,6.9c0,2.8,0.4,5.2,1.1,7.4c0.7,2.1,1.8,3.9,3.1,5.3
			c1.3,1.4,2.9,2.5,4.8,3.2c1.9,0.7,3.9,1.1,6.2,1.1c1.1,0,2.2-0.1,3.3-0.4c1.1-0.2,2.1-0.6,3-1.1v-11.3h-9.2
			c-0.5,0-0.8-0.3-1.1-0.8c-0.3-0.6-0.4-1.5-0.4-2.9c0-0.7,0-1.3,0.1-1.8c0.1-0.5,0.2-0.9,0.3-1.1c0.1-0.3,0.3-0.5,0.5-0.6
			c0.2-0.1,0.4-0.2,0.6-0.2h16.5c0.4,0,0.8,0.1,1.1,0.2c0.3,0.1,0.6,0.3,0.8,0.6c0.2,0.3,0.4,0.6,0.5,1c0.1,0.4,0.2,0.8,0.2,1.3
			v19.4c0,0.8-0.1,1.4-0.4,2c-0.3,0.6-0.8,1-1.6,1.3c-0.8,0.3-1.8,0.7-3,1c-1.2,0.4-2.5,0.7-3.7,0.9c-1.3,0.3-2.6,0.4-3.9,0.6
			c-1.3,0.1-2.6,0.2-4,0.2c-3.9,0-7.4-0.6-10.4-1.7c-3.1-1.1-5.7-2.7-7.8-4.9c-2.1-2.1-3.8-4.7-4.9-7.8c-1.1-3.1-1.7-6.5-1.7-10.4
			c0-4,0.6-7.6,1.8-10.7c1.2-3.2,2.9-5.9,5.1-8.1c2.2-2.2,4.9-3.9,8-5.1s6.6-1.8,10.4-1.8c2.1,0,4,0.1,5.8,0.4
			c1.7,0.3,3.2,0.6,4.5,1.1c1.3,0.4,2.4,0.9,3.2,1.3c0.9,0.5,1.4,0.9,1.8,1.2c0.3,0.4,0.6,0.8,0.7,1.5
			C763.3,833.1,763.3,834.1,763.3,835.3z"/>
	</g>
	<g>
		<path class="st3" d="M357,936.9v-1.5c3.4-0.3,3.7-0.6,3.7-4.2v-16.7c0-3.7-0.4-3.9-3.7-4.2v-1.5h12.7v1.5
			c-3.4,0.3-3.8,0.6-3.8,4.2v16.7c0,3.6,0.4,3.8,3.8,4.2v1.5H357z"/>
		<path class="st3" d="M382.7,936.9v-1.4c2.1-0.3,2.2-0.5,2.2-3.4v-7.3c0-3.1-1.4-4.4-3.3-4.4c-1.3,0-2.6,0.6-3.8,1.6v10.3
			c0,2.8,0.2,2.9,2.2,3.2v1.4h-9.8v-1.4c2.5-0.4,2.7-0.4,2.7-3.3v-9c0-2.7-0.3-2.8-2.4-3.2v-1.3c2.4-0.3,5-0.9,7.3-1.7
			c0,0.7-0.1,2.2-0.1,3.2c0.9-0.6,1.8-1.3,2.8-1.9c1.3-0.8,2.2-1.2,3.4-1.2c3.5,0,5.7,2.5,5.7,6.9v8.2c0,2.8,0.3,2.9,2.5,3.2v1.4
			H382.7z"/>
		<path class="st3" d="M415.2,935.8c-1,0.2-4.7,0.7-7.8,1.7c0-0.9,0-1.7,0-2.6c-0.8,0.5-1.9,1.1-2.6,1.6c-1.3,0.8-2.1,0.9-2.6,0.9
			c-3.6,0-8.6-3.3-8.6-9.6c0-5.9,5.2-10.6,11.7-10.6c0.4,0,1.4,0,2.2,0.2v-5.4c0-2.5-0.2-2.6-3.1-2.9v-1.3c2.6-0.3,5.9-0.9,7.9-1.5
			c0,1.7,0,3.3,0,5.1v20.1c0,2.3,0.3,2.5,1.9,2.7l1.1,0.1V935.8z M407.4,921.3c-0.7-1.3-2-2.2-3.7-2.2c-1.6,0-4.8,1.1-4.8,7.3
			c0,5.5,3.2,7.8,5.4,7.9c1,0,2.1-0.4,3-1V921.3z"/>
		<path class="st3" d="M437.2,935.9c-2.4,0.3-5,0.9-7.6,1.5c0-0.9,0-2.1,0-3.1c-2,1.6-3.8,3.1-6.2,3.1c-3.4,0-5.6-2.1-5.6-6.3v-8.7
			c0-2.1-0.3-2.3-1.4-2.6l-1-0.2v-1.3c2.1-0.1,5.3-0.4,7.4-0.7c-0.1,1.7-0.1,3.8-0.1,6.4v6.2c0,3.2,1.6,4.2,3.3,4.2
			c1.3,0,2.5-0.4,3.7-1.5v-10.3c0-2.1-0.3-2.4-1.6-2.7l-1.3-0.2v-1.3c2.6-0.1,6-0.5,7.8-0.7v14.2c0,2.2,0.3,2.6,1.8,2.7l1,0.1V935.9
			z"/>
		<path class="st3" d="M449.7,923.3c-1-2.8-2.3-4.3-4.6-4.3c-1.3,0-2.4,0.9-2.4,2.5c0,1.6,1.1,2.5,3.4,3.5c3.6,1.6,5.8,3,5.8,6.3
			c0,4.2-3.9,6.3-7.6,6.3c-2.2,0-4.5-0.8-5.4-1.3c-0.2-1.1-0.6-3.9-0.7-5.3l1.4-0.2c0.9,2.7,2.5,5.2,5.4,5.2c1.6,0,2.7-1,2.7-2.5
			c0-1.6-0.8-2.5-3.4-3.8c-2.9-1.4-5.6-2.9-5.6-6.3c0-3.3,2.8-5.9,7.2-5.9c2,0,3.5,0.4,4.5,0.6c0.1,1.1,0.5,3.9,0.7,5L449.7,923.3z"
			/>
		<path class="st3" d="M461.8,936.9c-0.7,0.4-1.4,0.5-1.8,0.5c-3.1,0-4.9-1.6-4.9-5.4v-12.2h-2.8l-0.2-0.5l1.2-1.5h1.8v-3.6
			c1.2-1,3.1-2.3,4.3-3.2l0.6,0.3c-0.1,1.4-0.1,3.8-0.1,6.6h4.5c0.4,0.4,0.2,1.6-0.3,2h-4.2v10.7c0,3.4,1.4,3.9,2.3,3.9
			c0.8,0,1.6-0.2,2.3-0.5l0.4,1.4L461.8,936.9z"/>
		<path class="st3" d="M476,936.9h-10.9v-1.4c2.4-0.3,2.7-0.5,2.7-3.1v-9.3c0-2.4-0.2-2.6-2.4-3v-1.2c2.5-0.3,4.7-0.8,7.2-1.7
			c0,1.4,0,3.3,0,4.7c1.8-2.7,3.4-4.6,5.3-4.6c1.6,0,2.7,1,2.7,2.4c0,1.7-1.2,2.8-1.9,3.2c-0.5,0.3-0.9,0.1-1.3-0.2
			c-0.7-0.6-1.3-1.2-2-1.2c-0.7,0-2,0.8-2.8,2.7v8.2c0,2.7,0.3,2.8,3.4,3.2V936.9z"/>
		<path class="st3" d="M481.5,936.9v-1.4c2.5-0.3,2.7-0.5,2.7-3.5v-8.6c0-2.8-0.2-3-2.4-3.3v-1.3c2.6-0.3,5-0.9,7.2-1.6
			c0,1.8,0,3.6,0,5.4v9.4c0,2.9,0.2,3.2,2.8,3.5v1.4H481.5z M486.3,914c-1.5,0-2.8-1.3-2.8-2.8c0-1.6,1.3-2.8,2.9-2.8
			c1.5,0,2.8,1.2,2.8,2.8C489.2,912.8,487.9,914,486.3,914z"/>
		<path class="st3" d="M507,937.4c-1,0-1.9-0.4-2.5-0.9c-0.6-0.5-0.9-1.1-1.1-1.7c-1.7,1.1-3.8,2.6-4.8,2.6c-3.5,0-5.7-2.8-5.7-5.5
			c0-2.2,1.1-3.4,3.4-4.3c2.6-0.9,5.9-2,6.9-2.8v-1.5c0-2.5-1.1-4-3.1-4c-0.8,0-1.4,0.4-1.8,0.9c-0.5,0.7-0.7,1.6-1.1,2.8
			c-0.3,1-0.9,1.3-1.6,1.3c-1,0-2.3-1-2.3-2.1c0-0.7,0.5-1.3,1.5-1.9c1.7-1.2,4.2-2.5,6.7-3.1c1.6,0,3,0.4,4.2,1.2
			c1.7,1.3,2.3,3,2.3,5.2v7.8c0,2,0.7,2.6,1.4,2.6c0.5,0,0.9-0.2,1.4-0.4l0.5,1.4L507,937.4z M503.3,926.5c-0.8,0.4-2.1,1-3,1.5
			c-1.4,0.7-2.3,1.5-2.3,3c0,2.4,1.7,3.3,2.8,3.3c0.8,0,1.7-0.3,2.5-1C503.3,931.3,503.3,928.6,503.3,926.5z"/>
		<path class="st3" d="M511,936.9v-1.4c2.6-0.3,2.7-0.6,2.7-3.3v-20c0-2.4-0.2-2.6-2.7-3.1v-1.3c2.8-0.3,5.7-0.9,7.5-1.5
			c0,2,0,4,0,6v19.9c0,2.9,0.2,3,2.8,3.3v1.4H511z"/>
		<path class="st3" d="M557.6,929.7c-0.6,2.1-1.7,5.4-2.4,6.8c-1.2,0.3-4.6,1.1-7.9,1.1c-11.2,0-16.1-7.3-16.1-14.4
			c0-8.9,6.8-15,16.9-15c3.7,0,7,0.9,8.2,1c0.2,2,0.5,5,0.8,7l-1.6,0.3c-0.9-3.2-2.1-4.9-4.4-5.8c-1.1-0.5-2.7-0.7-4-0.7
			c-6.6,0-9.9,5.2-9.9,12.1c0,8.1,4.2,13.4,10.4,13.4c3.9,0,6.2-1.9,8.5-6.5L557.6,929.7z"/>
		<path class="st3" d="M569.8,917.3c5.8,0,9.8,4.4,9.8,9.7c0,7-5.1,10.4-9.9,10.4c-6.3,0-10-4.9-10-9.9
			C559.7,920.8,565.2,917.3,569.8,917.3z M569.3,918.9c-2.1,0-4.1,2.2-4.1,7.4c0,5.4,2,9.5,5,9.5c2,0,3.9-1.4,3.9-7.6
			C574.1,922.5,572.4,918.9,569.3,918.9z"/>
		<path class="st3" d="M593.4,936.9v-1.4c2.1-0.3,2.2-0.5,2.2-3.4v-7.3c0-3.1-1.4-4.4-3.3-4.4c-1.3,0-2.6,0.6-3.8,1.6v10.3
			c0,2.8,0.2,2.9,2.2,3.2v1.4h-9.8v-1.4c2.5-0.4,2.7-0.4,2.7-3.3v-9c0-2.7-0.3-2.8-2.4-3.2v-1.3c2.4-0.3,5-0.9,7.3-1.7
			c0,0.7-0.1,2.2-0.1,3.2c0.9-0.6,1.8-1.3,2.8-1.9c1.3-0.8,2.2-1.2,3.4-1.2c3.5,0,5.7,2.5,5.7,6.9v8.2c0,2.8,0.3,2.9,2.5,3.2v1.4
			H593.4z"/>
		<path class="st3" d="M615.5,923.3c-1-2.8-2.3-4.3-4.6-4.3c-1.3,0-2.4,0.9-2.4,2.5c0,1.6,1.1,2.5,3.4,3.5c3.6,1.6,5.8,3,5.8,6.3
			c0,4.2-3.9,6.3-7.6,6.3c-2.2,0-4.5-0.8-5.4-1.3c-0.2-1.1-0.6-3.9-0.7-5.3l1.4-0.2c0.9,2.7,2.5,5.2,5.4,5.2c1.6,0,2.7-1,2.7-2.5
			c0-1.6-0.8-2.5-3.4-3.8c-2.9-1.4-5.6-2.9-5.6-6.3c0-3.3,2.8-5.9,7.2-5.9c2,0,3.5,0.4,4.5,0.6c0.1,1.1,0.5,3.9,0.7,5L615.5,923.3z"
			/>
		<path class="st3" d="M640.1,935.9c-2.4,0.3-5,0.9-7.6,1.5c0-0.9,0-2.1,0-3.1c-2,1.6-3.8,3.1-6.2,3.1c-3.4,0-5.6-2.1-5.6-6.3v-8.7
			c0-2.1-0.3-2.3-1.4-2.6l-1-0.2v-1.3c2.1-0.1,5.3-0.4,7.4-0.7c-0.1,1.7-0.1,3.8-0.1,6.4v6.2c0,3.2,1.6,4.2,3.3,4.2
			c1.3,0,2.5-0.4,3.7-1.5v-10.3c0-2.1-0.3-2.4-1.6-2.7l-1.3-0.2v-1.3c2.6-0.1,6-0.5,7.8-0.7v14.2c0,2.2,0.3,2.6,1.8,2.7l1,0.1V935.9
			z"/>
		<path class="st3" d="M640.5,936.9v-1.4c2.6-0.3,2.7-0.6,2.7-3.3v-20c0-2.4-0.2-2.6-2.7-3.1v-1.3c2.8-0.3,5.7-0.9,7.5-1.5
			c0,2,0,4,0,6v19.9c0,2.9,0.2,3,2.8,3.3v1.4H640.5z"/>
		<path class="st3" d="M660.4,936.9c-0.7,0.4-1.4,0.5-1.8,0.5c-3.1,0-4.9-1.6-4.9-5.4v-12.2h-2.8l-0.2-0.5l1.2-1.5h1.8v-3.6
			c1.2-1,3.1-2.3,4.3-3.2l0.6,0.3c-0.1,1.4-0.1,3.8-0.1,6.6h4.5c0.4,0.4,0.2,1.6-0.3,2h-4.2v10.7c0,3.4,1.4,3.9,2.3,3.9
			c0.8,0,1.6-0.2,2.3-0.5l0.4,1.4L660.4,936.9z"/>
		<path class="st3" d="M678.1,937.4c-1,0-1.9-0.4-2.5-0.9c-0.6-0.5-0.9-1.1-1.1-1.7c-1.7,1.1-3.8,2.6-4.8,2.6
			c-3.5,0-5.7-2.8-5.7-5.5c0-2.2,1.1-3.4,3.4-4.3c2.6-0.9,5.9-2,6.9-2.8v-1.5c0-2.5-1.1-4-3.1-4c-0.8,0-1.4,0.4-1.8,0.9
			c-0.5,0.7-0.7,1.6-1.1,2.8c-0.3,1-0.9,1.3-1.6,1.3c-1,0-2.3-1-2.3-2.1c0-0.7,0.5-1.3,1.5-1.9c1.7-1.2,4.2-2.5,6.7-3.1
			c1.6,0,3,0.4,4.2,1.2c1.7,1.3,2.3,3,2.3,5.2v7.8c0,2,0.7,2.6,1.4,2.6c0.5,0,0.9-0.2,1.4-0.4l0.5,1.4L678.1,937.4z M674.4,926.5
			c-0.8,0.4-2.1,1-3,1.5c-1.4,0.7-2.3,1.5-2.3,3c0,2.4,1.7,3.3,2.8,3.3c0.8,0,1.7-0.3,2.5-1C674.4,931.3,674.4,928.6,674.4,926.5z"
			/>
		<path class="st3" d="M695.1,936.9v-1.4c2.1-0.3,2.2-0.5,2.2-3.4v-7.3c0-3.1-1.4-4.4-3.3-4.4c-1.3,0-2.6,0.6-3.8,1.6v10.3
			c0,2.8,0.2,2.9,2.2,3.2v1.4h-9.8v-1.4c2.5-0.4,2.7-0.4,2.7-3.3v-9c0-2.7-0.3-2.8-2.4-3.2v-1.3c2.4-0.3,5-0.9,7.3-1.7
			c0,0.7-0.1,2.2-0.1,3.2c0.9-0.6,1.8-1.3,2.8-1.9c1.3-0.8,2.2-1.2,3.4-1.2c3.5,0,5.7,2.5,5.7,6.9v8.2c0,2.8,0.3,2.9,2.5,3.2v1.4
			H695.1z"/>
		<path class="st3" d="M714.3,936.9c-0.7,0.4-1.4,0.5-1.8,0.5c-3.1,0-4.9-1.6-4.9-5.4v-12.2h-2.8l-0.2-0.5l1.2-1.5h1.8v-3.6
			c1.2-1,3.1-2.3,4.3-3.2l0.6,0.3c-0.1,1.4-0.1,3.8-0.1,6.6h4.5c0.4,0.4,0.2,1.6-0.3,2h-4.2v10.7c0,3.4,1.4,3.9,2.3,3.9
			c0.8,0,1.6-0.2,2.3-0.5l0.4,1.4L714.3,936.9z"/>
		<path class="st3" d="M729.5,923.3c-1-2.8-2.3-4.3-4.6-4.3c-1.3,0-2.4,0.9-2.4,2.5c0,1.6,1.1,2.5,3.4,3.5c3.6,1.6,5.8,3,5.8,6.3
			c0,4.2-3.9,6.3-7.6,6.3c-2.2,0-4.5-0.8-5.4-1.3c-0.2-1.1-0.6-3.9-0.7-5.3l1.4-0.2c0.9,2.7,2.5,5.2,5.4,5.2c1.6,0,2.7-1,2.7-2.5
			c0-1.6-0.8-2.5-3.4-3.8c-2.9-1.4-5.6-2.9-5.6-6.3c0-3.3,2.8-5.9,7.2-5.9c2,0,3.5,0.4,4.5,0.6c0.1,1.1,0.5,3.9,0.7,5L729.5,923.3z"
			/>
	</g>
</g>
</svg>
